<?xml version="1.0" encoding="utf-8"?>
<!-- Generator: Adobe Illustrator 16.0.0, SVG Export Plug-In . SVG Version: 6.00 Build 0)  -->
<!DOCTYPE svg PUBLIC "-//W3C//DTD SVG 1.1//EN" "http://www.w3.org/Graphics/SVG/1.1/DTD/svg11.dtd">
<svg version="1.1" id="Capa_1" xmlns="http://www.w3.org/2000/svg" xmlns:xlink="http://www.w3.org/1999/xlink" x="0px" y="0px"
	 width="100px" height="100px" viewBox="0 0 100 100" enable-background="new 0 0 100 100" xml:space="preserve">
<g>
	<g>
		<g>
			<path fill="#EF963F" d="M62.902,49.999h3.227v-3.227h-3.227v-4.458l3.227-6.452V26.75l-4.172-4.171H56.45v-3.226h6.452V6.45
				H56.45v-6.451H43.547V6.45h-6.451v12.903h6.451v3.226h-5.506l-4.17,4.172v9.112l3.225,6.452v4.458h-3.225V50h3.225
				c0,9.773-3.129,34.027-9.1,46.773h-3.803v3.228h2.229h47.156h2.229v-3.228h-3.805C66.031,84.026,62.902,59.772,62.902,49.999z
				 M40.322,16.128V9.676h6.452V3.224h6.451v6.452h6.452v6.452h-6.452v6.451h-6.451v-6.451H40.322z M31.551,96.772
				c5.766-13.501,8.771-37.095,8.771-46.773h12.902v-3.227H40.322v-3.226h12.902V40.32H39.707l-2.611-5.22v-7.016l2.281-2.28h21.246
				l2.281,2.28v7.016l-2.609,5.22h-3.844v3.227h3.227v3.226h-3.227v3.227h3.227c0,9.679,3.006,33.272,8.771,46.773H31.551z"/>
			<path fill="#EF963F" d="M83.871,32.257c8.893,0,16.129-7.236,16.129-16.129S92.764-0.001,83.871-0.001
				c-8.895,0-16.129,7.234-16.129,16.129C67.742,25.021,74.977,32.257,83.871,32.257z M83.871,3.224
				c7.113,0,12.902,5.789,12.902,12.903s-5.789,12.902-12.902,12.902c-7.115,0-12.904-5.788-12.904-12.902
				S76.756,3.224,83.871,3.224z"/>
			<path fill="#EF963F" d="M85.482,20.967h-3.227c-0.889,0-1.611-0.724-1.611-1.613h-3.227c0,2.667,2.172,4.839,4.838,4.839v3.226
				h3.227v-3.226c2.668,0,4.84-2.172,4.84-4.839c0-2.668-2.172-4.839-4.84-4.839h-3.227c-0.889,0-1.611-0.723-1.611-1.613
				s0.723-1.613,1.611-1.613h3.227c0.891,0,1.613,0.723,1.613,1.613h3.227c0-2.668-2.172-4.839-4.84-4.839V4.837h-3.227v3.226
				c-2.666,0-4.838,2.171-4.838,4.839s2.172,4.838,4.838,4.838h3.227c0.891,0,1.613,0.724,1.613,1.613
				C87.096,20.243,86.373,20.967,85.482,20.967z"/>
			<path fill="#EF963F" d="M16.129,58.063c8.894,0,16.129-7.235,16.129-16.129s-7.235-16.129-16.129-16.129
				C7.234,25.806,0,33.041,0,41.935C0,50.827,7.234,58.063,16.129,58.063z M16.129,29.03c7.114,0,12.902,5.789,12.902,12.903
				s-5.789,12.903-12.902,12.903c-7.115,0-12.903-5.788-12.903-12.903S9.014,29.03,16.129,29.03z"/>
			<rect x="75.807" y="82.257" fill="#EF963F" width="3.227" height="3.226"/>
			<rect x="75.807" y="61.289" fill="#EF963F" width="3.227" height="17.741"/>
			<polygon fill="#EF963F" points="69.48,54.837 75.807,54.837 75.807,58.063 79.031,58.063 79.031,51.611 75.678,51.611 
				83.871,39.907 92.063,51.611 88.709,51.611 88.709,75.805 91.934,75.805 91.934,54.837 98.26,54.837 83.871,34.282 			"/>
			<rect x="88.709" y="79.031" fill="#EF963F" width="3.227" height="3.227"/>
			<rect x="8.063" y="96.772" fill="#EF963F" width="3.226" height="3.228"/>
			<polygon fill="#EF963F" points="20.967,90.321 24.193,90.321 24.193,80.644 30.517,80.644 16.129,60.089 1.739,80.644 
				8.063,80.644 8.063,93.547 11.289,93.547 11.289,77.418 7.937,77.418 16.129,65.715 24.32,77.418 20.967,77.418 			"/>
			<path fill="#EF963F" d="M24.058,44.857c-0.585-0.39-1.169-0.195-1.364,0.39c-0.974,2.338-3.118,3.703-5.261,3.703
				c-2.13,0-4.008-1.218-5.083-3.118h4.499c0.585,0,0.975-0.39,0.975-0.975s-0.39-0.975-0.975-0.975h-5.239
				c-0.127-0.559-0.216-1.138-0.216-1.753c0-0.542,0.064-1.061,0.164-1.559h5.292c0.585,0,0.975-0.39,0.975-0.975
				c0-0.584-0.39-0.974-0.975-0.974h-4.592c1.056-2.007,2.978-3.313,5.177-3.313c2.143,0,4.287,1.364,5.261,3.702
				c0.389,0.39,0.779,0.584,1.364,0.39c0.39-0.39,0.584-0.779,0.39-1.364c-1.364-3.118-4.092-4.872-7.014-4.872
				c-3.4,0-6.229,2.247-7.402,5.456H7.886c-0.585,0-0.975,0.39-0.975,0.974c0,0.585,0.39,0.975,0.975,0.975h1.681
				c-0.063,0.448-0.123,0.896-0.123,1.363c0,0.673,0.083,1.321,0.218,1.949H7.886c-0.585,0-0.975,0.39-0.975,0.975
				s0.39,0.975,0.975,0.975h2.441c1.336,2.886,4.06,4.87,7.104,4.87c2.923,0,5.651-1.752,7.015-4.481
				C24.837,45.637,24.643,45.052,24.058,44.857z"/>
		</g>
	</g>
</g>
</svg>
