<?xml version="1.0" encoding="utf-8"?>
<!-- Generator: Adobe Illustrator 16.0.0, SVG Export Plug-In . SVG Version: 6.00 Build 0)  -->
<!DOCTYPE svg PUBLIC "-//W3C//DTD SVG 1.1//EN" "http://www.w3.org/Graphics/SVG/1.1/DTD/svg11.dtd">
<svg version="1.1" id="Capa_1" xmlns="http://www.w3.org/2000/svg" xmlns:xlink="http://www.w3.org/1999/xlink" x="0px" y="0px"
	 width="100px" height="100px" viewBox="0 0 100 100" enable-background="new 0 0 100 100" xml:space="preserve">
<g>
	<g>
		<g>
			<path fill="#EF963F" d="M46.171,91.848c0-0.022-0.002-0.043-0.004-0.063c0-0.021,0-0.037-0.002-0.058
				c-0.004-0.041-0.01-0.082-0.017-0.123c-0.001-0.012-0.003-0.021-0.005-0.033c-0.021-0.106-0.055-0.211-0.098-0.309
				c-0.004-0.01-0.01-0.021-0.014-0.029c-0.018-0.039-0.037-0.073-0.059-0.108c-0.008-0.017-0.016-0.026-0.023-0.041
				c-0.02-0.031-0.041-0.063-0.063-0.094c-0.01-0.015-0.021-0.025-0.03-0.039c-0.026-0.031-0.054-0.063-0.081-0.095
				c-0.008-0.008-0.016-0.018-0.023-0.024c-0.037-0.037-0.076-0.072-0.117-0.104c-0.002-0.002-0.004-0.004-0.006-0.007l-6.851-5.502
				c-0.624-0.502-1.534-0.399-2.035,0.224s-0.401,1.533,0.222,2.035l3.373,2.709c-8.92-0.886-16.965-4.468-22.988-10.312
				C10.517,73.24,6.753,64.232,6.753,54.508c0-0.799-0.648-1.447-1.449-1.447c-0.799,0-1.446,0.648-1.446,1.447
				c0,10.516,4.075,20.262,11.478,27.441c6.526,6.332,15.225,10.199,24.846,11.127l-3.377,2.195c-0.67,0.438-0.86,1.332-0.424,2.002
				c0.276,0.428,0.74,0.66,1.215,0.66c0.271,0,0.543-0.076,0.787-0.234l7.133-4.639c0.002-0.002,0.004-0.004,0.006-0.006
				c0.045-0.029,0.089-0.062,0.13-0.097c0.006-0.004,0.011-0.013,0.017-0.017c0.034-0.028,0.067-0.061,0.098-0.092
				c0.013-0.014,0.022-0.024,0.035-0.039c0.023-0.024,0.047-0.055,0.069-0.082c0.011-0.014,0.021-0.026,0.031-0.043
				c0.022-0.03,0.043-0.063,0.063-0.096c0.006-0.012,0.015-0.023,0.021-0.035c0.052-0.092,0.095-0.19,0.126-0.295
				c0.002-0.008,0.004-0.018,0.006-0.025c0.012-0.043,0.021-0.086,0.03-0.129c0.003-0.018,0.005-0.03,0.007-0.049
				c0.005-0.037,0.009-0.074,0.012-0.111c0-0.01,0.002-0.02,0.004-0.026c0-0.01-0.002-0.021,0-0.028
				C46.169,91.875,46.171,91.861,46.171,91.848z"/>
		</g>
	</g>
	<g>
		<g>
			<path fill="#EF963F" d="M84.755,18.985C78.229,12.651,69.527,8.784,59.907,7.858l3.379-2.197c0.67-0.436,0.856-1.332,0.424-2.002
				c-0.438-0.67-1.334-0.859-2.002-0.424l-7.133,4.639c-0.003,0.002-0.005,0.004-0.007,0.005c-0.045,0.028-0.09,0.062-0.131,0.096
				c-0.006,0.005-0.012,0.011-0.018,0.017c-0.033,0.028-0.066,0.06-0.098,0.092C54.313,8.095,54.3,8.107,54.29,8.12
				c-0.024,0.026-0.049,0.055-0.069,0.084c-0.013,0.014-0.021,0.026-0.031,0.041c-0.021,0.031-0.045,0.063-0.063,0.098
				c-0.008,0.012-0.017,0.021-0.021,0.033c-0.053,0.094-0.097,0.191-0.127,0.297c-0.002,0.008-0.004,0.016-0.006,0.023
				c-0.013,0.043-0.021,0.086-0.029,0.131c-0.004,0.017-0.006,0.031-0.008,0.049c-0.006,0.035-0.011,0.072-0.013,0.109
				c-0.002,0.01-0.004,0.021-0.004,0.029c0,0.01,0,0.02,0,0.029c0,0.015-0.002,0.027-0.002,0.043c0,0.021,0.002,0.043,0.004,0.063
				c0,0.019,0,0.037,0.002,0.056c0.005,0.043,0.011,0.084,0.017,0.125c0.002,0.011,0.004,0.021,0.006,0.031
				c0.021,0.108,0.055,0.211,0.098,0.31c0.004,0.011,0.01,0.021,0.014,0.03c0.02,0.037,0.037,0.073,0.06,0.109
				c0.008,0.014,0.016,0.025,0.022,0.04c0.021,0.032,0.041,0.063,0.063,0.093c0.011,0.014,0.021,0.026,0.028,0.04
				c0.026,0.032,0.054,0.063,0.082,0.095c0.008,0.008,0.016,0.017,0.022,0.024c0.037,0.037,0.076,0.073,0.117,0.106
				c0.002,0,0.004,0.002,0.006,0.005l6.853,5.503c0.268,0.214,0.586,0.318,0.903,0.318c0.425,0,0.845-0.186,1.132-0.541
				c0.5-0.623,0.399-1.535-0.224-2.035l-3.373-2.709c8.92,0.884,16.965,4.465,22.987,10.311
				c6.836,6.631,10.599,15.639,10.599,25.364c0,0.799,0.647,1.447,1.449,1.447c0.799,0,1.444-0.648,1.444-1.447
				C96.229,35.909,92.154,26.165,84.755,18.985z"/>
		</g>
	</g>
	<g>
		<g>
			<path fill="#EF963F" d="M27.107,0C12.16,0,0.001,12.161,0.001,27.107c0,14.947,12.159,27.108,27.106,27.108
				c14.946,0,27.106-12.161,27.106-27.108C54.214,12.161,42.056,0,27.107,0z M27.107,51.32c-13.351,0-24.213-10.861-24.213-24.212
				S13.757,2.895,27.107,2.895S51.32,13.756,51.32,27.108C51.32,40.458,40.458,51.32,27.107,51.32z"/>
		</g>
	</g>
	<g>
		<g>
			<path fill="#EF963F" d="M47.733,29.699c-0.786-0.153-1.545,0.357-1.699,1.143c-0.738,3.76-2.566,7.186-5.287,9.907
				c-3.644,3.643-8.488,5.648-13.64,5.648s-9.996-2.007-13.64-5.648c-2.715-2.715-4.541-6.133-5.282-9.881
				c-0.155-0.784-0.915-1.295-1.7-1.141c-0.784,0.155-1.294,0.917-1.139,1.701c0.853,4.313,2.953,8.244,6.074,11.366
				c4.19,4.188,9.762,6.497,15.688,6.497c5.926,0,11.496-2.309,15.686-6.497c3.129-3.13,5.232-7.07,6.082-11.396
				C49.028,30.614,48.518,29.853,47.733,29.699z"/>
		</g>
	</g>
	<g>
		<g>
			<path fill="#EF963F" d="M48.595,21.577c-0.983-3.832-2.989-7.345-5.801-10.155c-4.189-4.19-9.761-6.498-15.687-6.498
				c-5.927,0-11.496,2.308-15.687,6.498c-2.806,2.806-4.81,6.309-5.795,10.131c-0.199,0.774,0.268,1.563,1.041,1.763
				c0.775,0.199,1.563-0.266,1.764-1.039c0.855-3.322,2.598-6.367,5.037-8.808c3.644-3.644,8.488-5.649,13.64-5.649
				s9.996,2.006,13.64,5.649c2.445,2.444,4.188,5.498,5.043,8.828c0.168,0.653,0.756,1.088,1.4,1.088
				c0.119,0,0.24-0.015,0.359-0.046C48.326,23.14,48.794,22.351,48.595,21.577z"/>
		</g>
	</g>
	<g>
		<g>
			<path fill="#EF963F" d="M72.893,45.786c-14.947,0-27.106,12.159-27.106,27.106C45.786,87.838,57.945,100,72.893,100
				c14.946,0,27.106-12.162,27.106-27.107C100.001,57.945,87.841,45.786,72.893,45.786z M72.893,97.105
				c-13.351,0-24.213-10.861-24.213-24.213c0-13.353,10.863-24.212,24.213-24.212c13.352,0,24.213,10.861,24.213,24.212
				C97.104,86.242,86.243,97.105,72.893,97.105z"/>
		</g>
	</g>
	<g>
		<g>
			<path fill="#EF963F" d="M94.464,67.697c-0.95-3.965-2.985-7.594-5.885-10.49c-4.188-4.189-9.763-6.498-15.688-6.498
				c-5.924,0-11.496,2.309-15.686,6.498c-2.871,2.871-4.896,6.463-5.857,10.385c-0.189,0.777,0.283,1.561,1.062,1.752
				c0.776,0.189,1.562-0.285,1.751-1.063c0.835-3.408,2.597-6.531,5.093-9.027c3.646-3.645,8.488-5.648,13.642-5.648
				c5.152,0,9.996,2.006,13.641,5.648c2.52,2.52,4.289,5.674,5.115,9.121c0.158,0.662,0.752,1.107,1.406,1.107
				c0.11,0,0.225-0.013,0.338-0.039C94.171,69.256,94.648,68.475,94.464,67.697z"/>
		</g>
	</g>
	<g>
		<g>
			<path fill="#EF963F" d="M93.495,75.664c-0.783-0.16-1.55,0.344-1.709,1.127c-0.761,3.693-2.574,7.063-5.254,9.74
				c-3.646,3.645-8.486,5.65-13.642,5.65c-5.152,0-9.996-2.009-13.639-5.65c-2.658-2.656-4.47-5.998-5.236-9.656
				c-0.164-0.783-0.932-1.285-1.715-1.119c-0.781,0.164-1.283,0.93-1.119,1.713c0.885,4.213,2.969,8.055,6.023,11.109
				c4.189,4.189,9.76,6.498,15.686,6.498c5.928,0,11.496-2.309,15.688-6.498c3.08-3.08,5.17-6.955,6.043-11.205
				C94.782,76.59,94.275,75.824,93.495,75.664z"/>
		</g>
	</g>
	<g>
		<path fill="#EF963F" d="M36.608,30.844c-0.775-0.516-1.548-0.258-1.805,0.516c-1.289,3.093-4.126,4.899-6.961,4.899
			c-2.818,0-5.303-1.612-6.727-4.125h5.953c0.774,0,1.29-0.516,1.29-1.29s-0.516-1.29-1.29-1.29h-6.933
			c-0.168-0.74-0.286-1.505-0.286-2.319c0-0.718,0.084-1.403,0.217-2.063h7.001c0.774,0,1.29-0.516,1.29-1.29
			c0-0.773-0.516-1.289-1.29-1.289h-6.077c1.397-2.655,3.94-4.383,6.851-4.383c2.835,0,5.672,1.805,6.961,4.898
			c0.515,0.516,1.03,0.773,1.805,0.516c0.514-0.516,0.772-1.031,0.514-1.805c-1.804-4.125-5.414-6.446-9.28-6.446
			c-4.5,0-8.243,2.973-9.794,7.219h-2.838c-0.774,0-1.29,0.516-1.29,1.289c0,0.774,0.516,1.29,1.29,1.29h2.225
			c-0.083,0.592-0.162,1.186-0.162,1.804c0,0.89,0.11,1.748,0.289,2.579h-2.351c-0.774,0-1.29,0.516-1.29,1.29s0.516,1.29,1.29,1.29
			h3.23c1.768,3.818,5.372,6.444,9.4,6.444c3.867,0,7.476-2.319,9.281-5.93C37.639,31.875,37.381,31.102,36.608,30.844z"/>
	</g>
	<g>
		<g>
			<path fill="#EF963F" d="M78.128,73.129c1.526-0.676,2.496-2.32,2.496-4.76c0-3.08-1.545-4.391-3.631-4.857h0.073v-1.371
				c0-0.756-0.612-1.369-1.369-1.369c-0.758,0-1.37,0.613-1.37,1.369v1.148h-1.498v-1.148c0-0.756-0.613-1.369-1.371-1.369
				c-0.756,0-1.369,0.613-1.369,1.369v1.148h-0.387h-0.356h-1.345c-0.799,0-1.449,0.646-1.449,1.447c0,0.787,0.63,1.428,1.412,1.445
				v15.684c-0.782,0.021-1.412,0.658-1.412,1.445c0,0.801,0.648,1.448,1.449,1.448h1.345h0.356h0.387v1.22
				c0,0.758,0.613,1.371,1.369,1.371c0.758,0,1.371-0.613,1.371-1.371V84.76h1.498v1.219c0,0.758,0.612,1.371,1.37,1.371
				c0.757,0,1.369-0.613,1.369-1.371v-1.369h-0.139c2.471-0.493,4.223-2.248,4.223-6.018v-0.561
				C81.15,75.039,79.947,73.834,78.128,73.129z M71.048,66.049h3.438c1.852,0,3.025,0.852,3.025,2.82
				c0,1.996-0.97,3.025-2.968,3.025h-3.496V66.049L71.048,66.049z M78.04,78.357c0,2.524-1.233,3.643-3.319,3.643h-3.673v-7.637
				h3.673c2.086,0,3.319,0.938,3.319,3.522V78.357z"/>
		</g>
	</g>
</g>
</svg>
