<?xml version="1.0" encoding="utf-8"?>
<!-- Generator: Adobe Illustrator 16.0.0, SVG Export Plug-In . SVG Version: 6.00 Build 0)  -->
<!DOCTYPE svg PUBLIC "-//W3C//DTD SVG 1.1//EN" "http://www.w3.org/Graphics/SVG/1.1/DTD/svg11.dtd">
<svg version="1.1" id="Capa_1" xmlns="http://www.w3.org/2000/svg" xmlns:xlink="http://www.w3.org/1999/xlink" x="0px" y="0px"
	 width="100px" height="100px" viewBox="0 0 100 100" enable-background="new 0 0 100 100" xml:space="preserve">
<g>
	<g>
		<path fill="#EF963F" d="M86.666,46.667c0.658-0.002,1.252-0.392,1.518-0.992l0.014-0.026l6.652-14.97
			C94.947,30.464,94.998,30.234,95,30V1.666C95.01,0.757,94.281,0.01,93.373,0c-0.014,0-0.027,0-0.041,0h-30
			c-0.635-0.004-1.215,0.354-1.5,0.922l-6.666,13.333h0.016C55.063,14.484,55,14.74,55,15v13.333H45V1.666
			C45.01,0.757,44.282,0.01,43.373,0c-0.014,0-0.027,0-0.041,0h-30c-0.631,0-1.209,0.355-1.492,0.922L5.174,14.254H5.19
			C5.068,14.484,5.002,14.74,5,15v30c0,0.921,0.745,1.667,1.666,1.667H20v6.666h-6.668c-0.631,0-1.209,0.355-1.492,0.922
			L5.174,67.588H5.19C5.068,67.816,5.002,68.072,5,68.332v30C5,99.254,5.746,100,6.666,100h30c0.658-0.002,1.252-0.393,1.519-0.992
			l0.012-0.027L44.416,85H55v13.334c0,0.92,0.746,1.666,1.666,1.666h30c0.658-0.002,1.252-0.391,1.518-0.992l0.014-0.025
			l6.652-14.971c0.098-0.213,0.148-0.443,0.15-0.678V55c0.01-0.908-0.719-1.654-1.627-1.666c-0.014,0-0.027,0-0.041,0h-20v-6.667
			L86.666,46.667L86.666,46.667z M91.666,29.646l-3.334,7.5V15.393l3.334-6.667V29.646z M64.363,3.332h26.271l-5,10H59.363
			L64.363,3.332z M38.332,28.333V15.393l3.334-6.667v19.606H38.332z M40.768,31.667l-2.436,5.479v-5.479H40.768L40.768,31.667z
			 M14.362,3.332h26.272l-5,10H9.362L14.362,3.332z M8.332,43.333V16.666H35v11.667H20v3.334h15v11.666H8.332z M14.362,56.666H20v10
			H9.362L14.362,56.666z M35,96.666H8.332V70H20v15h3.332V70H35V96.666z M35.637,66.666H23.332v-10h17.305L35.637,66.666z
			 M38.332,90.479V85h2.436L38.332,90.479z M41.666,81.666h-3.334V68.727l3.334-6.668V81.666z M55.166,67.588h0.016
			C55.063,67.816,55,68.072,55,68.332v13.334H45V55c0.01-0.91-0.718-1.656-1.627-1.668c-0.014,0-0.027,0-0.041,0h-20v-6.666h13.334
			c0.657-0.002,1.252-0.392,1.518-0.992l0.012-0.026l6.221-13.98h10.582V45c0,0.921,0.746,1.667,1.666,1.667h13.334v6.667h-6.666
			c-0.635-0.004-1.217,0.354-1.5,0.922L55.166,67.588z M70,56.666v10H59.363l5-10H70z M85,96.666H58.332V85h15v-3.334h-15V70H85
			V96.666z M91.666,82.979l-3.334,7.5V68.727l3.334-6.668V82.979z M90.637,56.666l-5,10H73.332v-10H90.637z M70,28.333v15H58.332
			V16.666H85v26.667H73.332v-15H70z"/>
	</g>
</g>
</svg>
