<?xml version="1.0" encoding="utf-8"?>
<!-- Generator: Adobe Illustrator 16.0.0, SVG Export Plug-In . SVG Version: 6.00 Build 0)  -->
<!DOCTYPE svg PUBLIC "-//W3C//DTD SVG 1.1//EN" "http://www.w3.org/Graphics/SVG/1.1/DTD/svg11.dtd">
<svg version="1.1" id="Capa_1" xmlns="http://www.w3.org/2000/svg" xmlns:xlink="http://www.w3.org/1999/xlink" x="0px" y="0px"
	 width="100px" height="100px" viewBox="0 0 100 100" enable-background="new 0 0 100 100" xml:space="preserve">
<g>
	<g>
		<g>
			<path fill="#EF963F" d="M81.075,52.729L87.388,54c0.439-2.218,0.762-4.455,0.965-6.706l-6.406-0.586
				C81.763,48.729,81.474,50.738,81.075,52.729z"/>
			<path fill="#EF963F" d="M85.413,12.758c-9.855,0.011-19.49-2.902-27.687-8.37L51.152,0h-2.306L42.29,4.388
				c-8.201,5.472-17.844,8.384-27.703,8.37h-3.219v28.706c0.034,24.94,14.607,47.572,37.299,57.925L49.999,100l1.334-0.608
				c12.209-5.521,22.35-14.777,28.957-26.434l-5.594-3.188C69.005,79.814,60.39,87.889,49.999,92.917
				c-19.679-9.595-32.17-29.563-32.191-51.454V19.104c10.021-0.562,19.71-3.8,28.056-9.377l4.138-2.766l4.137,2.759
				c8.346,5.579,18.033,8.82,28.055,9.384V40.57h6.439V12.757L85.413,12.758L85.413,12.758z"/>
			<path fill="#EF963F" d="M77.425,64.33l5.902,2.574c0.9-2.071,1.693-4.19,2.375-6.348l-6.145-1.932
				C78.95,60.564,78.237,62.468,77.425,64.33z"/>
			<path fill="#EF963F" d="M59.794,37.926c-0.045-0.041-0.09-0.082-0.135-0.122v-8.95H53.22v6.438h-6.438v-6.438h-6.438v6.438
				h-3.219v32.192h3.219v6.438h6.438v-6.438h6.438v6.438h6.439v-8.949c3.941-3.485,4.313-9.508,0.83-13.451
				c-0.041-0.045-0.082-0.09-0.123-0.135C63.927,47.513,63.669,41.484,59.794,37.926z M53.22,61.047h-9.658v-6.438h9.658
				c1.777,0,3.219,1.44,3.219,3.22C56.438,59.606,54.997,61.047,53.22,61.047z M53.22,48.17h-9.658v-6.438h9.658
				c1.777,0,3.219,1.441,3.219,3.22C56.438,46.729,54.997,48.17,53.22,48.17z"/>
		</g>
	</g>
</g>
</svg>
