<?xml version="1.0" encoding="utf-8"?>
<!-- Generator: Adobe Illustrator 16.0.0, SVG Export Plug-In . SVG Version: 6.00 Build 0)  -->
<!DOCTYPE svg PUBLIC "-//W3C//DTD SVG 1.1//EN" "http://www.w3.org/Graphics/SVG/1.1/DTD/svg11.dtd">
<svg version="1.1" id="Capa_1" xmlns="http://www.w3.org/2000/svg" xmlns:xlink="http://www.w3.org/1999/xlink" x="0px" y="0px"
	 width="100px" height="100px" viewBox="0 0 100 100" enable-background="new 0 0 100 100" xml:space="preserve">
<g>
	<g>
		<g>
			<path fill="#EF963F" d="M89.852,21.837c-0.818,0-1.482,0.664-1.482,1.482v3.856c0,0.819,0.664,1.483,1.482,1.483
				s1.482-0.664,1.482-1.483V23.32C91.336,22.501,90.672,21.837,89.852,21.837z"/>
		</g>
	</g>
	<g>
		<g>
			<path fill="#EF963F" d="M89.852,32.219c-0.818,0-1.482,0.664-1.482,1.483v3.855c0,0.819,0.664,1.483,1.482,1.483
				s1.482-0.664,1.482-1.483v-3.855C91.336,32.883,90.672,32.219,89.852,32.219z"/>
		</g>
	</g>
	<g>
		<g>
			<path fill="#EF963F" d="M96.973,28.957h-3.855c-0.82,0-1.484,0.664-1.484,1.482c0,0.819,0.664,1.483,1.484,1.483h3.855
				c0.818,0,1.482-0.664,1.482-1.483C98.455,29.621,97.791,28.957,96.973,28.957z"/>
		</g>
	</g>
	<g>
		<g>
			<path fill="#EF963F" d="M86.59,28.957h-3.857c-0.816,0-1.48,0.664-1.48,1.482c0,0.819,0.664,1.483,1.48,1.483h3.857
				c0.818,0,1.482-0.664,1.482-1.483C88.072,29.621,87.408,28.957,86.59,28.957z"/>
		</g>
	</g>
	<g>
		<g>
			<path fill="#EF963F" d="M10.254,0.359c-0.818,0-1.482,0.664-1.482,1.483v3.856c0,0.818,0.664,1.482,1.482,1.482
				c0.819,0,1.483-0.664,1.483-1.482V1.842C11.739,1.023,11.075,0.359,10.254,0.359z"/>
		</g>
	</g>
	<g>
		<g>
			<path fill="#EF963F" d="M10.254,10.742c-0.818,0-1.482,0.664-1.482,1.482v3.855c0,0.82,0.664,1.483,1.482,1.483
				c0.819,0,1.483-0.663,1.483-1.483v-3.855C11.739,11.406,11.075,10.742,10.254,10.742z"/>
		</g>
	</g>
	<g>
		<g>
			<path fill="#EF963F" d="M17.374,7.478h-3.855c-0.819,0-1.483,0.664-1.483,1.483s0.664,1.483,1.483,1.483h3.855
				c0.819,0,1.483-0.664,1.483-1.483C18.858,8.142,18.194,7.478,17.374,7.478z"/>
		</g>
	</g>
	<g>
		<g>
			<path fill="#EF963F" d="M6.992,7.478H3.135c-0.818,0-1.482,0.664-1.482,1.483s0.665,1.483,1.482,1.483h3.856
				c0.819,0,1.483-0.664,1.483-1.483C8.476,8.142,7.811,7.478,6.992,7.478z"/>
		</g>
	</g>
	<g>
		<g>
			<path fill="#EF963F" d="M52.309,29.598c-4.722-0.279-9.691-0.309-14.451-0.089c-0.818,0.038-1.451,0.732-1.413,1.55
				c0.038,0.818,0.731,1.451,1.55,1.414c4.656-0.215,9.52-0.186,14.138,0.087c0.029,0.002,0.061,0.002,0.09,0.002
				c0.779,0,1.433-0.607,1.479-1.396C53.75,30.348,53.127,29.647,52.309,29.598z"/>
		</g>
	</g>
	<g>
		<g>
			<path fill="#EF963F" d="M73.064,32.797c-0.789-0.219-1.607,0.242-1.826,1.031c-0.221,0.79,0.242,1.606,1.031,1.826
				c8.166,2.271,13.238,5.544,13.238,8.542c0,2.78-4.293,5.779-11.48,8.024c-7.938,2.479-18.518,3.842-29.791,3.842
				c-11.273,0-21.854-1.363-29.79-3.842c-7.188-2.245-11.481-5.244-11.481-8.023c0-2.291,2.955-4.27,4.715-5.244
				c3.341-1.854,8.195-3.44,14.035-4.594c0.804-0.158,1.328-0.938,1.168-1.743c-0.158-0.804-0.939-1.326-1.742-1.168
				C7.706,34.1,0,38.747,0,44.197c0,3.021,2.353,7.356,13.563,10.856c8.214,2.564,19.107,3.977,30.674,3.977
				c11.566,0,22.46-1.41,30.675-3.977c11.209-3.5,13.563-7.835,13.563-10.856C88.475,39.61,83.002,35.561,73.064,32.797z"/>
		</g>
	</g>
	<g>
		<g>
			<path fill="#EF963F" d="M68.1,41.611L68.055,41.6c-0.799-0.188-1.598,0.305-1.785,1.104c-0.121,0.509,0.037,1.02,0.375,1.37
				c-6.406,1.433-14.327,2.218-22.408,2.218c-8.08,0-16-0.786-22.408-2.218c0.336-0.351,0.494-0.859,0.375-1.368
				c-0.188-0.797-0.986-1.292-1.783-1.104l-0.049,0.012c-1.223,0.289-2.043,1.328-2.043,2.585c0,1.258,0.82,2.297,2.043,2.585
				l0.049,0.013c6.746,1.588,15.205,2.463,23.815,2.463c8.61,0,17.069-0.875,23.817-2.463l0.049-0.011
				c1.223-0.289,2.043-1.328,2.043-2.586C70.145,42.939,69.324,41.9,68.1,41.611z"/>
		</g>
	</g>
	<g>
		<g>
			<path fill="#EF963F" d="M70.07,57.209c-0.818,0-1.482,0.664-1.482,1.482v31.715c0,2.686-9.486,6.584-24.351,6.584
				c-14.863,0-24.352-3.898-24.352-6.584V84.25c0-0.818-0.664-1.482-1.482-1.482s-1.482,0.664-1.482,1.482v6.156
				c0,2.898,2.977,5.361,8.607,7.119c5.02,1.568,11.663,2.432,18.709,2.432c7.045,0,13.691-0.863,18.708-2.432
				c5.631-1.758,8.607-4.221,8.607-7.119V58.691C71.555,57.875,70.891,57.209,70.07,57.209z"/>
		</g>
	</g>
	<g>
		<g>
			<path fill="#EF963F" d="M18.403,57.209c-0.818,0-1.482,0.664-1.482,1.482v20.613c0,0.818,0.664,1.482,1.482,1.482
				s1.482-0.664,1.482-1.482V58.691C19.887,57.875,19.223,57.209,18.403,57.209z"/>
		</g>
	</g>
	<g>
		<g>
			<path fill="#EF963F" d="M99.732,9.97l-3.395-4.867c-0.469-0.672-1.395-0.836-2.064-0.367L49.014,36.292
				c-0.322,0.225-0.541,0.568-0.611,0.956c-0.068,0.388,0.018,0.785,0.244,1.108l3.394,4.866c0.287,0.414,0.748,0.635,1.217,0.635
				c0.293,0,0.59-0.087,0.848-0.267l45.26-31.556c0.322-0.226,0.543-0.569,0.611-0.957C100.045,10.691,99.957,10.292,99.732,9.97z
				 M53.625,40.31l-1.697-2.434L94.754,8.017l1.697,2.434L53.625,40.31z"/>
		</g>
	</g>
	<g>
		<g>
			<path fill="#EF963F" d="M68.572,11.041l-3.123-0.633c-2.498-0.506-4.441-2.449-4.947-4.947l-0.633-3.123
				c-0.273-1.352-1.429-2.294-2.807-2.294c-1.379,0-2.533,0.942-2.807,2.294L53.623,5.46c-0.508,2.5-2.449,4.441-4.949,4.947
				l-3.123,0.633c-1.352,0.274-2.295,1.429-2.295,2.807s0.943,2.532,2.295,2.807l3.123,0.633c2.5,0.506,4.441,2.449,4.949,4.947
				l0.633,3.123c0.272,1.352,1.428,2.294,2.807,2.294c1.378,0,2.531-0.942,2.807-2.294l0.633-3.123
				c0.506-2.5,2.449-4.441,4.947-4.947l3.123-0.633c1.352-0.274,2.295-1.429,2.295-2.807S69.924,11.315,68.572,11.041z
				 M64.861,14.38c-3.672,0.744-6.523,3.596-7.268,7.266l-0.532,2.624l-0.532-2.624c-0.744-3.67-3.596-6.521-7.265-7.266
				l-2.625-0.533l2.625-0.532c3.669-0.743,6.521-3.596,7.265-7.266l0.532-2.624l0.532,2.624c0.744,3.67,3.596,6.522,7.268,7.266
				l2.623,0.532L64.861,14.38z"/>
		</g>
	</g>
	<g>
		<g>
			<path fill="#EF963F" d="M42.829,20.516l-3.781-0.767c-3.15-0.639-5.599-3.086-6.237-6.236l-0.767-3.782
				c-0.303-1.487-1.574-2.528-3.092-2.528c-1.52,0-2.79,1.041-3.092,2.528l-0.768,3.782c-0.639,3.15-3.086,5.598-6.236,6.236
				l-3.782,0.767c-1.487,0.302-2.526,1.573-2.526,3.093c0,1.519,1.039,2.789,2.526,3.092l3.782,0.767
				c3.15,0.639,5.598,3.087,6.236,6.237l0.768,3.781c0.302,1.488,1.572,2.528,3.092,2.528c1.518,0,2.79-1.039,3.092-2.528
				l0.767-3.781c0.639-3.15,3.086-5.599,6.237-6.237l3.781-0.767c1.488-0.303,2.528-1.573,2.528-3.092
				C45.357,22.089,44.318,20.818,42.829,20.516z M42.241,23.792l-3.781,0.767c-4.322,0.876-7.68,4.234-8.556,8.555l-0.767,3.782
				c-0.014,0.07-0.03,0.15-0.184,0.15c-0.154,0-0.17-0.08-0.185-0.15l-0.767-3.782c-0.877-4.32-4.233-7.679-8.556-8.555
				l-3.782-0.767c-0.07-0.016-0.15-0.031-0.15-0.186s0.08-0.17,0.15-0.185l3.782-0.767c4.321-0.877,7.679-4.234,8.556-8.556
				l0.767-3.782c0.014-0.07,0.03-0.149,0.185-0.149c0.153,0,0.17,0.079,0.184,0.149l0.767,3.782
				c0.876,4.321,4.233,7.679,8.556,8.556l3.781,0.767c0.07,0.014,0.15,0.03,0.15,0.185C42.391,23.762,42.311,23.779,42.241,23.792z"
				/>
		</g>
	</g>
</g>
</svg>
