<?xml version="1.0" encoding="utf-8"?>
<!-- Generator: Adobe Illustrator 16.0.0, SVG Export Plug-In . SVG Version: 6.00 Build 0)  -->
<!DOCTYPE svg PUBLIC "-//W3C//DTD SVG 1.1//EN" "http://www.w3.org/Graphics/SVG/1.1/DTD/svg11.dtd">
<svg version="1.1" id="Capa_1" xmlns="http://www.w3.org/2000/svg" xmlns:xlink="http://www.w3.org/1999/xlink" x="0px" y="0px"
	 width="100px" height="100px" viewBox="0 0 100 100" enable-background="new 0 0 100 100" xml:space="preserve">
<g>
	<g>
		<g>
			<path fill="#EF963F" d="M91.666,0H58.332c-4.6,0.005-8.328,3.732-8.332,8.332v23.334c0.004,4.601,3.732,8.328,8.332,8.334H65
				v8.333C65,49.254,65.746,50,66.666,50c0.359,0,0.711-0.117,1-0.334L80.555,40h11.111c4.6-0.006,8.328-3.733,8.334-8.334V8.333
				C99.994,3.735,96.266,0.005,91.666,0z M96.666,31.667c0,2.762-2.238,5-5,5H80c-0.361,0-0.713,0.116-1,0.334l-10.668,8v-6.667
				c0-0.92-0.746-1.667-1.666-1.667h-8.334c-2.761,0-5-2.238-5-5V8.333c0-2.762,2.239-5,5-5h33.334c2.762,0,5,2.238,5,5V31.667z"/>
		</g>
	</g>
	<g>
		<g>
			<path fill="#EF963F" d="M85,53.334H70.936c-2.293-0.002-4.295,1.561-4.852,3.785l-1.02,4.086l-2,6.648l-1.137,3.781l-1.943-9.08
				c-1.174-5.365-5.912-9.199-11.402-9.223h-10.25v-7.581c4.146-2.776,6.646-7.43,6.668-12.419v-10c-0.01-8.28-6.721-14.991-15-15
				H15c-0.92,0-1.668,0.746-1.668,1.666c0.014,2.691,1.11,5.265,3.045,7.138c-0.897,1.942-1.367,4.056-1.377,6.196v10
				c0.021,4.989,2.52,9.643,6.666,12.419v7.581h-10C5.228,53.34,0.008,58.559,0,65v33.332C0,99.252,0.746,100,1.666,100h46.668
				c0.92,0,1.666-0.748,1.666-1.668V79.385l1.619,6.064c1.514,5.666,7.334,9.033,13.002,7.52c3.447-0.922,6.201-3.512,7.332-6.896
				l5.732-17.209l1.887-5.65c4.068-0.607,7.084-4.098,7.096-8.211C86.666,54.08,85.92,53.334,85,53.334z M40.459,56.666
				l-3.793,6.641l-3.793-6.641H40.459z M31.666,61.275l3.08,5.393l-3.08,5.391V61.275z M25,53.334v-5.867
				c0.312,0.111,0.631,0.203,0.949,0.293c0.075,0.021,0.148,0.048,0.225,0.068c0.526,0.137,1.06,0.243,1.598,0.32
				c0.199,0.03,0.396,0.055,0.595,0.075c0.421,0.046,0.841,0.073,1.263,0.084c0.125,0,0.248,0.024,0.371,0.024
				s0.244-0.021,0.369-0.024c0.422-0.011,0.844-0.039,1.262-0.084c0.201-0.021,0.398-0.045,0.598-0.075
				c0.54-0.076,1.076-0.182,1.605-0.315c0.076-0.021,0.149-0.047,0.225-0.068c0.318-0.09,0.639-0.182,0.949-0.293v5.862H25z
				 M30,11.667c5.414,0.007,10.114,3.73,11.359,9l-3.516-3.514c-0.313-0.313-0.735-0.486-1.178-0.486H23.334
				c-3.031-0.029-5.67-2.073-6.455-5H30z M18.332,33.333V23.333c0.002-1.461,0.277-2.908,0.815-4.269
				c0.345,0.161,0.698,0.304,1.06,0.425c0.066,0.021,0.135,0.034,0.202,0.057c0.384,0.117,0.772,0.212,1.167,0.283
				c0.124,0.021,0.245,0.043,0.368,0.062c0.46,0.069,0.924,0.104,1.39,0.11h12.643l5.689,5.688v7.645C41.666,39.776,36.443,45,30,45
				C23.555,45,18.332,39.777,18.332,33.333z M23.332,56.666h3.793l-3.793,6.641l-3.793-6.641H23.332z M28.332,61.275v10.781
				l-3.08-5.391L28.332,61.275z M68.797,85.018c-1.271,3.818-5.398,5.883-9.219,4.609c-2.324-0.775-4.105-2.668-4.736-5.037
				l-4.898-18.354c-0.238-0.891-1.15-1.418-2.041-1.18c-0.729,0.195-1.236,0.855-1.236,1.609v30H13.334v-25H10v25H3.334V65
				c0.004-4.602,3.732-8.328,8.332-8.334H15.7L21.887,67.5l6.668,11.666c0.457,0.799,1.475,1.074,2.273,0.619
				c0.258-0.148,0.473-0.361,0.619-0.619L38.114,67.5l6.187-10.834h4.283c3.924,0.016,7.312,2.754,8.148,6.588l3.307,15.428
				c0.158,0.746,0.803,1.287,1.563,1.318c0.768,0.051,1.465-0.445,1.666-1.189l2.641-8.813h7.893L68.797,85.018z M74.91,66.666h-8
				l0.996-3.332h8.111L74.91,66.666z M78.332,60h-9.533l0.52-2.07c0.186-0.742,0.854-1.264,1.617-1.264h12.113
				C82.34,58.662,80.451,59.998,78.332,60z"/>
		</g>
	</g>
	<g>
		<g>
			<path fill="#EF963F" d="M83.055,21.686c-0.219-0.622-0.557-1.195-0.998-1.686c1.838-2.043,1.672-5.19-0.371-7.028
				c-0.49-0.44-1.063-0.781-1.686-0.999V8.333h-3.334v3.334h-3.334V8.333H70v3.334h-1.668c-0.92,0-1.666,0.746-1.666,1.666v13.334
				c0,0.921,0.746,1.667,1.666,1.667H70v3.333h3.332v-3.333h3.334v3.333H80v-3.641C82.594,27.12,83.961,24.282,83.055,21.686z
				 M78.332,25H70v-3.334h8.332c0.922,0,1.668,0.746,1.668,1.666C80,24.254,79.254,25,78.332,25z M78.332,18.333H70V15h8.332
				C79.254,15,80,15.747,80,16.667C80,17.587,79.254,18.333,78.332,18.333z"/>
		</g>
	</g>
	<g>
		<g>
			<rect x="21.666" y="26.667" fill="#EF963F" width="3.332" height="3.334"/>
		</g>
	</g>
	<g>
		<g>
			<rect x="35" y="26.667" fill="#EF963F" width="3.332" height="3.334"/>
		</g>
	</g>
	<g>
		<g>
			<rect x="28.332" y="26.667" fill="#EF963F" width="3.334" height="8.334"/>
		</g>
	</g>
</g>
</svg>
