<?xml version="1.0" encoding="utf-8"?>
<!-- Generator: Adobe Illustrator 16.0.0, SVG Export Plug-In . SVG Version: 6.00 Build 0)  -->
<!DOCTYPE svg PUBLIC "-//W3C//DTD SVG 1.1//EN" "http://www.w3.org/Graphics/SVG/1.1/DTD/svg11.dtd">
<svg version="1.1" id="Capa_1" xmlns="http://www.w3.org/2000/svg" xmlns:xlink="http://www.w3.org/1999/xlink" x="0px" y="0px"
	 width="100px" height="100px" viewBox="0 0 100 100" enable-background="new 0 0 100 100" xml:space="preserve">
<g>
	<g>
		<g>
			<path fill="#EF963F" d="M99.313,48.631l-9.168-6.644l5.928-9.635c0.279-0.457,0.324-1.02,0.119-1.513
				c-0.205-0.494-0.633-0.859-1.152-0.982l-10.998-2.626l1.789-11.174c0.084-0.527-0.088-1.063-0.469-1.441
				c-0.375-0.376-0.914-0.553-1.439-0.466l-11.174,1.788L70.123,4.94c-0.123-0.52-0.49-0.947-0.984-1.152
				c-0.494-0.203-1.057-0.162-1.51,0.12l-9.635,5.925l-6.643-9.166c-0.629-0.865-2.072-0.865-2.699,0l-6.644,9.166l-9.636-5.925
				c-0.456-0.28-1.019-0.325-1.512-0.12c-0.494,0.205-0.86,0.635-0.983,1.153l-2.625,10.997L16.08,14.15
				c-0.525-0.089-1.063,0.088-1.441,0.466c-0.377,0.377-0.551,0.914-0.467,1.441L15.96,27.23L4.964,29.855
				c-0.521,0.123-0.949,0.489-1.154,0.982c-0.202,0.495-0.159,1.058,0.121,1.513l5.924,9.635l-9.166,6.644
				C0.257,48.942,0,49.446,0,49.98c0,0.532,0.257,1.034,0.688,1.349l9.166,6.646l-5.924,9.633c-0.28,0.453-0.326,1.016-0.121,1.51
				s0.634,0.861,1.154,0.984l10.994,2.627l-1.789,11.174c-0.084,0.524,0.088,1.063,0.467,1.44s0.91,0.556,1.441,0.468l11.174-1.789
				l2.625,10.998c0.125,0.52,0.49,0.946,0.983,1.151c0.495,0.205,1.06,0.162,1.512-0.121l9.636-5.924l6.644,9.166
				c0.313,0.435,0.815,0.689,1.351,0.689c0.532,0,1.034-0.256,1.35-0.689l6.643-9.166l9.635,5.924
				c0.453,0.281,1.016,0.322,1.51,0.121c0.494-0.203,0.861-0.633,0.984-1.151l2.625-10.998l11.174,1.789
				c0.52,0.082,1.063-0.088,1.439-0.468c0.379-0.377,0.553-0.916,0.469-1.44l-1.789-11.174l10.998-2.625
				c0.52-0.123,0.947-0.49,1.152-0.984s0.158-1.057-0.119-1.51l-5.928-9.633l9.168-6.646c0.434-0.313,0.688-0.813,0.688-1.35
				C100.002,49.446,99.746,48.944,99.313,48.631z M86.943,56.178c-0.705,0.513-0.896,1.48-0.439,2.222l5.525,8.99l-10.262,2.45
				c-0.85,0.201-1.396,1.023-1.26,1.886l1.67,10.426L71.75,80.483c-0.867-0.142-1.684,0.408-1.885,1.26l-2.451,10.262l-8.988-5.526
				c-0.74-0.457-1.711-0.265-2.225,0.44l-6.2,8.556L43.8,86.919c-0.322-0.446-0.832-0.688-1.35-0.688
				c-0.298,0-0.602,0.08-0.872,0.252l-8.989,5.524l-2.451-10.262c-0.202-0.848-1.016-1.396-1.885-1.258l-10.427,1.668l1.668-10.428
				c0.138-0.861-0.409-1.683-1.258-1.886L7.974,67.394l5.529-8.99c0.457-0.742,0.264-1.711-0.441-2.223l-8.555-6.201l8.555-6.2
				c0.705-0.51,0.896-1.479,0.441-2.222l-5.529-8.99l10.263-2.449c0.847-0.204,1.396-1.023,1.258-1.886l-1.668-10.427l10.427,1.668
				c0.858,0.134,1.683-0.409,1.885-1.258l2.451-10.263l8.989,5.528c0.743,0.456,1.712,0.265,2.222-0.441l6.201-8.555l6.202,8.555
				c0.512,0.705,1.484,0.9,2.223,0.441l8.99-5.531l2.449,10.262c0.201,0.85,1.02,1.395,1.885,1.26l10.428-1.67l-1.67,10.428
				c-0.137,0.861,0.41,1.683,1.26,1.886l10.262,2.45l-5.525,8.99c-0.457,0.74-0.264,1.71,0.439,2.222l8.557,6.2L86.943,56.178z"/>
		</g>
	</g>
	<g>
		<g>
			<path fill="#EF963F" d="M38.335,38.313H25.001c-0.92,0-1.668,0.746-1.668,1.666v33.334c0,0.922,0.748,1.666,1.668,1.666h13.332
				c0.92,0,1.668-0.744,1.668-1.666V39.979C40.001,39.059,39.255,38.313,38.335,38.313z M36.667,71.646h-10V41.646h10V71.646z"/>
		</g>
	</g>
	<g>
		<g>
			<path fill="#EF963F" d="M53.336,16.646c-0.922,0-1.666,0.746-1.666,1.666v10.978l-6.18,6.178l2.355,2.357l6.668-6.667
				c0.313-0.313,0.488-0.736,0.488-1.179v-9.79c2.873,0.742,5,3.355,5,6.457v10h3.332v-10C63.336,21.13,58.852,16.646,53.336,16.646
				z"/>
		</g>
	</g>
	<g>
		<g>
			<path fill="#EF963F" d="M80.004,40.813c0-3.218-2.617-5.834-5.834-5.834h-27.5c-0.442,0-0.865,0.175-1.179,0.487L37.158,43.8
				c-0.313,0.313-0.488,0.736-0.488,1.179v25c0,0.922,0.746,1.668,1.666,1.668h32.502c3.215,0,5.832-2.617,5.832-5.834
				c0-1.261-0.4-2.429-1.082-3.384c1.648-1.03,2.75-2.864,2.75-4.95c0-1.632-0.674-3.107-1.756-4.166
				c1.084-1.062,1.756-2.535,1.756-4.167c0-1.263-0.402-2.43-1.084-3.385C78.902,44.73,80.004,42.897,80.004,40.813z M74.17,43.313
				h-1.668c-0.92,0-1.666,0.746-1.666,1.666s0.746,1.667,1.666,1.667c1.379,0,2.5,1.122,2.5,2.5s-1.121,2.499-2.5,2.499
				c-0.92,0-1.666,0.746-1.666,1.668s0.746,1.666,1.666,1.666c1.379,0,2.5,1.121,2.5,2.5s-1.121,2.5-2.5,2.5h-1.666
				c-0.922,0-1.666,0.746-1.666,1.666c0,0.922,0.744,1.668,1.666,1.668c1.379,0,2.5,1.121,2.5,2.5c0,1.377-1.121,2.5-2.5,2.5H40.001
				V45.668l7.356-7.355H74.17c1.377,0,2.5,1.121,2.5,2.5C76.67,42.19,75.547,43.313,74.17,43.313z"/>
		</g>
	</g>
	<g>
		<g>
			<rect x="30.001" y="64.979" fill="#EF963F" width="3.332" height="3.334"/>
		</g>
	</g>
</g>
</svg>
