<?xml version="1.0" encoding="utf-8"?>
<!-- Generator: Adobe Illustrator 16.0.0, SVG Export Plug-In . SVG Version: 6.00 Build 0)  -->
<!DOCTYPE svg PUBLIC "-//W3C//DTD SVG 1.1//EN" "http://www.w3.org/Graphics/SVG/1.1/DTD/svg11.dtd">
<svg version="1.1" id="Capa_1" xmlns="http://www.w3.org/2000/svg" xmlns:xlink="http://www.w3.org/1999/xlink" x="0px" y="0px"
	 width="100px" height="100px" viewBox="0 0 100 100" enable-background="new 0 0 100 100" xml:space="preserve">
<g>
	<path fill="#EF963F" d="M50,15.82c1.051,0,1.907-0.832,1.95-1.873c0.003-0.024,0.003-0.053,0.003-0.08
		c0-1.078-0.875-1.953-1.953-1.953s-1.953,0.875-1.953,1.953c0,0.027,0,0.056,0.002,0.08C48.092,14.988,48.948,15.82,50,15.82z"/>
	<path fill="#EF963F" d="M50,0C23.07,0,0,23.07,0,50c0,26.859,22.993,50,50,50c26.857,0,50-22.992,50-50C100,23.084,76.941,0,50,0z
		 M50,96.094c-24.556,0-46.095-21.539-46.095-46.093C3.905,25.445,25.444,3.906,50,3.906c24.555,0,46.094,21.539,46.094,46.095
		C96.094,74.555,74.555,96.094,50,96.094z"/>
	<path fill="#EF963F" d="M58.229,12.689c-1.05-0.25-2.103,0.399-2.353,1.449c-0.248,1.05,0.399,2.104,1.449,2.352
		c15.42,3.662,27.047,18.068,27.047,33.512c0,18.312-16.063,34.375-34.375,34.375c-18.312,0-34.375-16.063-34.375-34.375
		c0-15.443,11.627-29.85,27.047-33.512c1.049-0.248,1.698-1.302,1.449-2.352c-0.248-1.049-1.302-1.697-2.352-1.449
		c-16.982,4.032-30.051,19.907-30.051,37.312c0,20.351,17.793,38.28,38.281,38.28c20.352,0,38.281-17.791,38.281-38.28
		C88.281,32.61,75.225,16.725,58.229,12.689z"/>
	<path fill="#EF963F" d="M38.28,32.422c-1.079,0-1.953,0.875-1.953,1.953c0,1.079,0.875,1.953,1.953,1.953h1.953v27.344H38.28
		c-1.079,0-1.953,0.875-1.953,1.953c0,1.079,0.875,1.953,1.953,1.953c4.188,0,5.188,0,9.767,0v5.858
		c0,1.079,0.875,1.953,1.953,1.953s1.952-0.874,1.952-1.953v-5.858h1.953c5.386,0,9.767-4.382,9.767-9.767
		c0-3.19-1.52-6.017-3.908-7.814c2.371-1.784,3.908-4.621,3.908-7.811c0-5.395-4.371-9.766-9.767-9.766h-1.953v-5.859
		c0-1.079-0.874-1.952-1.952-1.952c-1.08,0-1.953,0.875-1.953,1.952v5.859C43.498,32.422,42.5,32.422,38.28,32.422z M59.766,57.813
		c0,3.23-2.629,5.859-5.859,5.859h-9.766V51.953h9.766C57.142,51.953,59.766,54.576,59.766,57.813z M59.766,42.188
		c0,3.231-2.629,5.859-5.859,5.859h-9.766V36.328h9.766C57.142,36.328,59.766,38.951,59.766,42.188z"/>
</g>
</svg>
