<?xml version="1.0" encoding="utf-8"?>
<!-- Generator: Adobe Illustrator 16.0.0, SVG Export Plug-In . SVG Version: 6.00 Build 0)  -->
<!DOCTYPE svg PUBLIC "-//W3C//DTD SVG 1.1//EN" "http://www.w3.org/Graphics/SVG/1.1/DTD/svg11.dtd">
<svg version="1.1" id="Layer_1" xmlns="http://www.w3.org/2000/svg" xmlns:xlink="http://www.w3.org/1999/xlink" x="0px" y="0px"
	 width="100px" height="100px" viewBox="0 0 100 100" enable-background="new 0 0 100 100" xml:space="preserve">
<g>
	<g>
		<g>
			<path fill="#EF963F" d="M57.762,47.239c-5.198-5.197-13.658-5.197-18.856,0c-5.198,5.199-5.198,13.656,0,18.855
				c2.601,2.6,6.013,3.896,9.429,3.896c3.414,0,6.83-1.299,9.428-3.896C62.959,60.895,62.959,52.438,57.762,47.239z M55.403,63.738
				c-3.899,3.896-10.243,3.898-14.144,0c-3.897-3.896-3.897-10.242,0-14.141c1.951-1.948,4.511-2.923,7.072-2.923
				c2.56,0,5.121,0.975,7.07,2.923C59.303,53.496,59.303,59.838,55.403,63.738z"/>
		</g>
	</g>
	<g>
		<g>
			<path fill="#EF963F" d="M53.045,55H50v-3.047c0-0.922-0.746-1.667-1.668-1.667s-1.666,0.746-1.666,1.667V55h-3.047
				c-0.922,0-1.666,0.748-1.666,1.668s0.744,1.666,1.666,1.666h3.047v3.049c0,0.92,0.744,1.666,1.666,1.666S50,62.303,50,61.383
				v-3.049h3.045c0.922,0,1.668-0.746,1.668-1.666S53.967,55,53.045,55z"/>
		</g>
	</g>
	<g>
		<g>
			<path fill="#EF963F" d="M81.666,13.333H10c-0.92,0-1.668,0.748-1.668,1.668S9.08,16.667,10,16.667h71.666
				c0.92,0,1.666-0.746,1.666-1.666S82.586,13.333,81.666,13.333z"/>
		</g>
	</g>
	<g>
		<g>
			<path fill="#EF963F" d="M98.332,46.667h-1.666V21.667C96.666,20.747,95.92,20,95,20h-5V8.333c0-0.92-0.748-1.666-1.668-1.666h-80
				C3.737,6.667,0,10.405,0,15v76.667c0,0.92,0.746,1.666,1.666,1.666H95c0.92,0,1.666-0.746,1.666-1.666v-25h1.666
				c0.92,0,1.668-0.748,1.668-1.668V48.334C100,47.414,99.252,46.667,98.332,46.667z M8.332,10h78.334v10H8.332
				c-2.757,0-5-2.243-5-5C3.332,12.243,5.575,10,8.332,10z M93.332,90h-90V21.624c1.396,1.059,3.117,1.709,5,1.709h85v23.335h-10
				c-5.516,0-10,4.483-10,10c0,5.514,4.484,10,10,10h10V90z M96.666,63.334H83.332c-3.676,0-6.666-2.99-6.666-6.666
				c0-3.678,2.99-6.667,6.666-6.667h13.334V63.334z"/>
		</g>
	</g>
</g>
</svg>
