<?xml version="1.0" encoding="utf-8"?>
<!-- Generator: Adobe Illustrator 16.0.0, SVG Export Plug-In . SVG Version: 6.00 Build 0)  -->
<!DOCTYPE svg PUBLIC "-//W3C//DTD SVG 1.1//EN" "http://www.w3.org/Graphics/SVG/1.1/DTD/svg11.dtd">
<svg version="1.1" id="Capa_1" xmlns="http://www.w3.org/2000/svg" xmlns:xlink="http://www.w3.org/1999/xlink" x="0px" y="0px"
	 width="100px" height="100px" viewBox="0 0 100 100" enable-background="new 0 0 100 100" xml:space="preserve">
<g>
	<g>
		<g>
			<path fill="#EF963F" d="M53.684,17.407c-2.19-0.463-4.42-0.707-6.659-0.729l-0.099,0.005c-0.053-0.006-0.217-0.02-0.271-0.02
				c-18.337,0-33.229,14.813-33.33,33.149c-0.099,18.337,14.634,33.311,32.97,33.508l0.182,0.002
				c0.068,0.007,0.156,0.013,0.191,0.013c2.469,0.001,4.93-0.27,7.34-0.806c0.289-0.063,0.576-0.138,0.988-0.244
				c14.723-3.799,25.008-17.081,25-32.287C79.945,34.311,69.008,20.763,53.684,17.407z M54.088,79.078
				c-0.299,0.076-0.553,0.143-0.808,0.198c-2.118,0.474-4.28,0.719-6.452,0.731l-0.109-0.011c-0.045-0.004-0.092-0.008-0.137-0.008
				l-0.246-0.004c-16.469-0.183-29.711-13.606-29.668-30.077c0.043-16.471,13.355-29.824,29.824-29.922
				c0.047,0.006,0.201,0.019,0.248,0.02l0.243,0.003c16.46,0.124,29.726,13.527,29.681,29.988
				C76.664,63.712,67.371,75.681,54.088,79.078z"/>
			<path fill="#EF963F" d="M46.662,13.329c0.219-0.002,0.434-0.047,0.633-0.133c0.203-0.086,0.389-0.203,0.551-0.351
				c0.304-0.319,0.477-0.742,0.482-1.185c-0.002-0.217-0.048-0.434-0.133-0.633c-0.081-0.205-0.199-0.392-0.35-0.551
				c-0.162-0.146-0.348-0.266-0.551-0.351c-0.621-0.263-1.338-0.123-1.816,0.351c-0.15,0.159-0.27,0.346-0.352,0.551
				c-0.084,0.199-0.129,0.416-0.133,0.633c-0.004,0.443,0.17,0.871,0.483,1.185S46.219,13.333,46.662,13.329z"/>
			<path fill="#EF963F" d="M47.846,87.151c-0.161-0.146-0.348-0.266-0.549-0.351c-0.623-0.253-1.334-0.115-1.817,0.351
				c-0.147,0.162-0.267,0.349-0.351,0.551c-0.086,0.199-0.131,0.416-0.133,0.634c-0.005,0.442,0.17,0.87,0.482,1.184
				c0.313,0.314,0.74,0.487,1.184,0.483c0.219-0.003,0.434-0.048,0.633-0.134c0.203-0.085,0.389-0.203,0.551-0.351
				c0.304-0.32,0.477-0.742,0.482-1.184c-0.002-0.219-0.048-0.435-0.133-0.635C48.115,87.497,47.996,87.311,47.846,87.151z"/>
			<path fill="#EF963F" d="M35.562,14.146c0.315,0.312,0.741,0.484,1.185,0.483c0.438,0.004,0.859-0.172,1.166-0.483
				c0.318-0.312,0.498-0.737,0.5-1.184c-0.003-0.106-0.014-0.212-0.033-0.316c-0.023-0.108-0.058-0.215-0.101-0.317
				c-0.04-0.099-0.09-0.193-0.149-0.282c-0.06-0.095-0.133-0.179-0.217-0.25c-0.658-0.625-1.691-0.625-2.351,0
				c-0.313,0.307-0.487,0.729-0.483,1.167c-0.003,0.222,0.037,0.441,0.117,0.648C35.281,13.812,35.406,13.993,35.562,14.146z"/>
			<path fill="#EF963F" d="M56.588,85.354c-0.442,0-0.867,0.181-1.176,0.498c-0.318,0.313-0.498,0.737-0.5,1.185
				c0.002,0.439,0.182,0.86,0.5,1.167c0.147,0.159,0.33,0.284,0.533,0.365c0.622,0.27,1.348,0.123,1.816-0.365l0,0
				c0.084-0.068,0.152-0.153,0.199-0.25c0.065-0.09,0.121-0.186,0.168-0.284c0.037-0.104,0.064-0.209,0.082-0.316
				c0.027-0.104,0.039-0.21,0.033-0.315c0.006-0.444-0.17-0.87-0.482-1.185C57.455,85.532,57.03,85.354,56.588,85.354z"/>
			<path fill="#EF963F" d="M25.961,17.43c0.037,0.105,0.086,0.206,0.149,0.299l0.2,0.252c0.074,0.075,0.158,0.144,0.25,0.198
				c0.096,0.062,0.195,0.117,0.299,0.167c0.098,0.035,0.198,0.063,0.3,0.084c0.109,0.025,0.222,0.037,0.333,0.032
				c0.217,0.004,0.432-0.036,0.633-0.116c0.199-0.097,0.385-0.22,0.551-0.365c0.307-0.318,0.479-0.742,0.482-1.186
				c0.006-0.219-0.04-0.436-0.133-0.633c-0.152-0.42-0.48-0.75-0.9-0.9c-0.304-0.133-0.642-0.168-0.967-0.102
				c-0.104,0.02-0.205,0.054-0.3,0.102c-0.106,0.037-0.207,0.088-0.299,0.15c-0.084,0.066-0.167,0.133-0.25,0.199
				c-0.147,0.162-0.267,0.349-0.351,0.551c-0.086,0.199-0.131,0.414-0.134,0.633c0.003,0.111,0.015,0.224,0.034,0.334
				C25.879,17.235,25.912,17.335,25.961,17.43z"/>
			<path fill="#EF963F" d="M67.014,82.019c-0.398-0.394-0.969-0.563-1.518-0.45c-0.104,0.019-0.205,0.053-0.301,0.101
				c-0.205,0.076-0.393,0.195-0.549,0.351c-0.154,0.156-0.273,0.344-0.352,0.55c-0.086,0.2-0.131,0.415-0.133,0.635
				c0.006,0.439,0.18,0.862,0.482,1.183c0.084,0.067,0.166,0.134,0.25,0.2c0.094,0.063,0.193,0.113,0.301,0.149
				c0.094,0.049,0.195,0.081,0.301,0.101c0.109,0.019,0.221,0.03,0.332,0.034c0.443,0.004,0.871-0.17,1.184-0.483
				c0.314-0.314,0.488-0.74,0.484-1.184c0.006-0.22-0.041-0.437-0.133-0.635C67.287,82.362,67.168,82.175,67.014,82.019z"/>
			<path fill="#EF963F" d="M18.91,24.429c0.206,0.086,0.428,0.132,0.65,0.134c0.218-0.002,0.433-0.048,0.633-0.134
				c0.203-0.08,0.387-0.205,0.534-0.366c0.319-0.308,0.5-0.73,0.5-1.175s-0.181-0.868-0.5-1.176
				c-0.308-0.317-0.731-0.497-1.175-0.497s-0.867,0.18-1.176,0.497c-0.645,0.651-0.645,1.7,0,2.351
				C18.524,24.224,18.707,24.349,18.91,24.429z"/>
			<path fill="#EF963F" d="M72.598,75.935c-0.316,0.305-0.5,0.727-0.5,1.166c0,0.445,0.182,0.872,0.5,1.185
				c0.309,0.313,0.729,0.486,1.166,0.482c0.223,0.003,0.443-0.036,0.65-0.116c0.199-0.087,0.381-0.212,0.533-0.366
				c0.313-0.313,0.486-0.74,0.482-1.185c0.004-0.438-0.17-0.859-0.482-1.166C74.293,75.3,73.252,75.3,72.598,75.935z"/>
			<path fill="#EF963F" d="M11.926,31.464c0.033,0.103,0.084,0.197,0.15,0.282c0.067,0.101,0.133,0.184,0.199,0.268
				c0.32,0.304,0.743,0.478,1.184,0.483c0.442-0.004,0.866-0.178,1.185-0.483c0.075-0.082,0.142-0.171,0.2-0.267
				c0.065-0.085,0.117-0.182,0.149-0.283c0.048-0.095,0.082-0.196,0.101-0.301c0.019-0.11,0.029-0.222,0.033-0.333
				c0.004-0.678-0.402-1.29-1.027-1.549c-0.625-0.261-1.346-0.115-1.823,0.365c-0.304,0.319-0.478,0.742-0.483,1.184
				c0.004,0.111,0.014,0.224,0.033,0.333C11.844,31.268,11.879,31.37,11.926,31.464z"/>
			<path fill="#EF963F" d="M80.504,67.618c-0.625-0.261-1.346-0.115-1.822,0.364l0,0c-0.305,0.32-0.479,0.742-0.482,1.185
				c0.002,0.441,0.176,0.865,0.482,1.184c0.656,0.646,1.709,0.646,2.365,0c0.309-0.316,0.48-0.741,0.484-1.184
				C81.535,68.491,81.129,67.878,80.504,67.618z"/>
			<path fill="#EF963F" d="M10.81,38.898c-0.662-0.617-1.688-0.617-2.351,0c-0.16,0.147-0.285,0.33-0.367,0.532
				c-0.082,0.207-0.129,0.428-0.133,0.65c0.01,0.443,0.188,0.867,0.5,1.184c0.65,0.646,1.699,0.646,2.351,0
				c0.151-0.161,0.276-0.348,0.366-0.55c0.08-0.201,0.121-0.417,0.117-0.634c0.002-0.223-0.037-0.442-0.117-0.65
				C11.09,39.231,10.965,39.05,10.81,38.898z"/>
			<path fill="#EF963F" d="M84.865,58.75c-0.656-0.634-1.695-0.634-2.352,0c-0.313,0.307-0.488,0.728-0.482,1.166
				c-0.002,0.442,0.172,0.868,0.482,1.184c0.313,0.316,0.738,0.491,1.184,0.483c0.438,0.004,0.859-0.17,1.168-0.483
				c0.488-0.47,0.635-1.194,0.365-1.815C85.15,59.08,85.025,58.897,84.865,58.75z"/>
			<path fill="#EF963F" d="M9.51,51.183L9.51,51.183c0.147-0.162,0.266-0.349,0.351-0.55c0.179-0.405,0.179-0.865,0-1.269
				c-0.085-0.201-0.203-0.388-0.351-0.55c-0.668-0.616-1.697-0.616-2.366,0c-0.151,0.159-0.271,0.347-0.351,0.55
				c-0.178,0.403-0.178,0.863,0,1.269c0.08,0.204,0.199,0.391,0.351,0.55C7.801,51.827,8.853,51.827,9.51,51.183z"/>
			<path fill="#EF963F" d="M84.363,48.464c-0.201,0.085-0.389,0.203-0.549,0.351c-0.645,0.657-0.645,1.71,0,2.368
				c0.162,0.146,0.348,0.266,0.549,0.351c0.201,0.086,0.416,0.131,0.635,0.134c0.674-0.003,1.281-0.409,1.539-1.031
				c0.258-0.624,0.119-1.34-0.355-1.82C85.701,48.343,84.984,48.205,84.363,48.464z"/>
			<path fill="#EF963F" d="M8.459,58.75c-0.639,0.649-0.634,1.693,0.012,2.34c0.645,0.645,1.688,0.647,2.34,0.01
				c0.313-0.313,0.488-0.74,0.482-1.184c0.004-0.438-0.17-0.859-0.482-1.166C10.154,58.116,9.114,58.116,8.459,58.75z"/>
			<path fill="#EF963F" d="M83.697,41.748c0.91-0.021,1.646-0.755,1.668-1.667c-0.004-0.219-0.049-0.434-0.135-0.634
				c-0.076-0.21-0.201-0.398-0.365-0.55c-0.309-0.317-0.732-0.498-1.178-0.498c-0.441,0-0.865,0.181-1.174,0.498
				c-0.313,0.314-0.484,0.74-0.482,1.184c-0.006,0.438,0.17,0.859,0.482,1.168C82.824,41.569,83.252,41.75,83.697,41.748z"/>
			<path fill="#EF963F" d="M14.644,67.983c-0.08-0.07-0.163-0.139-0.25-0.199c-0.093-0.063-0.194-0.113-0.3-0.15
				c-0.094-0.048-0.196-0.081-0.301-0.099c-0.547-0.103-1.111,0.064-1.517,0.449c-0.147,0.162-0.265,0.349-0.351,0.55
				c-0.084,0.2-0.131,0.416-0.133,0.634c-0.004,0.443,0.17,0.87,0.483,1.184c0.313,0.314,0.74,0.488,1.183,0.483
				c0.442-0.004,0.866-0.178,1.185-0.483c0.304-0.319,0.478-0.742,0.483-1.184c0.006-0.22-0.041-0.437-0.133-0.634
				C14.909,68.332,14.791,68.146,14.644,67.983z"/>
			<path fill="#EF963F" d="M79.865,32.498c0.783-0.009,1.457-0.568,1.604-1.342c0.148-0.771-0.27-1.54-0.998-1.838
				c-0.727-0.298-1.563-0.04-1.998,0.614s-0.35,1.525,0.207,2.081C79,32.318,79.424,32.491,79.865,32.498z"/>
			<path fill="#EF963F" d="M20.193,75.567c-0.412-0.167-0.872-0.167-1.284,0c-0.202,0.081-0.385,0.206-0.532,0.367
				c-0.646,0.65-0.646,1.698,0,2.351c0.152,0.154,0.332,0.278,0.532,0.366c0.208,0.08,0.429,0.119,0.65,0.116
				c0.217,0.003,0.432-0.036,0.633-0.116c0.2-0.088,0.381-0.212,0.534-0.366c0.318-0.309,0.5-0.731,0.5-1.176
				c0-0.443-0.18-0.867-0.5-1.176C20.58,75.773,20.396,75.648,20.193,75.567z"/>
			<path fill="#EF963F" d="M73.764,24.563L73.764,24.563c0.225-0.002,0.443-0.048,0.65-0.134c0.203-0.08,0.385-0.205,0.533-0.366
				c0.313-0.307,0.486-0.729,0.482-1.167c0-0.442-0.172-0.868-0.482-1.184c-0.662-0.616-1.689-0.616-2.352,0
				c-0.316,0.313-0.498,0.737-0.5,1.184C72.119,23.807,72.852,24.54,73.764,24.563z"/>
			<path fill="#EF963F" d="M28.127,81.651c-0.625-0.248-1.336-0.104-1.815,0.366c-0.306,0.319-0.478,0.742-0.483,1.185
				c0.002,0.218,0.047,0.433,0.133,0.634c0.084,0.202,0.203,0.388,0.352,0.55c0.318,0.305,0.742,0.478,1.184,0.483
				c0.219-0.004,0.434-0.049,0.633-0.134c0.418-0.151,0.748-0.481,0.9-0.899c0.094-0.197,0.139-0.415,0.133-0.633
				c-0.003-0.442-0.176-0.866-0.482-1.186C28.512,81.871,28.327,81.748,28.127,81.651z"/>
			<path fill="#EF963F" d="M64.896,18.179c0.094,0.063,0.193,0.113,0.299,0.149c0.096,0.049,0.195,0.082,0.301,0.102
				c0.109,0.025,0.223,0.037,0.334,0.032c0.441,0.002,0.869-0.173,1.184-0.481c0.646-0.658,0.646-1.711,0-2.367
				c-0.402-0.387-0.969-0.555-1.518-0.451c-0.104,0.02-0.205,0.053-0.301,0.101c-0.105,0.037-0.205,0.088-0.299,0.151
				c-0.084,0.066-0.168,0.132-0.25,0.199c-0.645,0.656-0.645,1.709,0,2.367C64.725,18.051,64.809,18.118,64.896,18.179z"/>
			<path fill="#EF963F" d="M37.912,85.852c-0.472-0.49-1.195-0.64-1.822-0.378s-1.029,0.882-1.012,1.562
				c-0.005,0.438,0.17,0.859,0.482,1.167c0.314,0.314,0.738,0.494,1.184,0.5c0.912-0.021,1.646-0.756,1.668-1.667
				c-0.005-0.224-0.05-0.443-0.135-0.65C38.197,86.182,38.072,85.999,37.912,85.852z"/>
			<path fill="#EF963F" d="M55.045,13.614c0.033,0.103,0.084,0.197,0.15,0.282c0.066,0.087,0.141,0.171,0.217,0.25
				c0.152,0.155,0.334,0.279,0.533,0.367c0.625,0.242,1.334,0.099,1.816-0.367c0.076-0.075,0.145-0.159,0.199-0.25
				c0.065-0.089,0.121-0.184,0.168-0.282c0.035-0.104,0.063-0.209,0.082-0.316c0.027-0.109,0.039-0.223,0.033-0.334
				c0.004-0.438-0.17-0.859-0.482-1.167c-0.48-0.472-1.191-0.613-1.816-0.366c-0.203,0.08-0.385,0.206-0.533,0.366
				c-0.316,0.306-0.498,0.727-0.5,1.167c0.004,0.111,0.014,0.224,0.033,0.334C54.965,13.407,54.998,13.512,55.045,13.614z"/>
			<path fill="#EF963F" d="M97.883,36.095c-0.014-0.038-0.02-0.076-0.037-0.112c-1.561-4.941-3.938-9.589-7.029-13.748
				c-0.023-0.027-0.035-0.063-0.063-0.088C81.957,10.309,68.078,3.331,53.33,3.329c-1.269,0-2.373,0.045-3.386,0.135
				c-0.885-0.061-1.767-0.102-2.636-0.109c-0.215-0.019-0.43-0.027-0.645-0.023C21.019,3.329,0.178,24.024,0.002,49.667
				c-0.179,25.645,20.373,46.626,46.017,46.979c0.214,0.021,0.43,0.027,0.646,0.024c1.115,0,2.227-0.053,3.334-0.13
				c0.998,0.086,2.086,0.13,3.334,0.13c14.748-0.001,28.627-6.979,37.424-18.818c0.025-0.024,0.039-0.061,0.063-0.087
				c3.094-4.16,5.469-8.807,7.029-13.749c0.018-0.036,0.023-0.074,0.037-0.111C100.705,54.849,100.705,45.149,97.883,36.095z
				 M88.691,24.997c2.195,3.088,3.975,6.449,5.295,10.001h-3.188c-1.211-3.515-2.834-6.871-4.838-10.001H88.691z M86.076,21.663
				h-2.445c-3.203-4.185-7.086-7.801-11.486-10.698C77.467,13.548,82.207,17.188,86.076,21.663z M56.198,92.292
				c-3.131,0.696-6.327,1.047-9.536,1.043c-0.113,0-0.213,0.002-0.467-0.017l0,0C22.355,93.064,3.199,73.6,3.327,49.757
				C3.455,25.917,22.82,6.659,46.661,6.661h0.068c0.091,0,0.194,0.002,0.397,0.017c23.77,0.194,42.922,19.549,42.869,43.32
				C90,69.787,76.6,87.064,57.432,91.985C57.022,92.094,56.611,92.2,56.198,92.292z M72.668,88.765
				c4.238-2.847,7.979-6.37,11.076-10.431h2.332C82.334,82.657,77.777,86.201,72.668,88.765z M88.691,75.001L88.691,75.001h-2.635
				c1.99-3.131,3.602-6.488,4.795-10.001h3.135C92.668,68.552,90.887,71.913,88.691,75.001z M95.057,61.667h-3.201
				c0.828-3.273,1.301-6.626,1.406-10.001h3.361C96.496,55.05,95.969,58.406,95.057,61.667z M93.258,48.332
				c-0.111-3.376-0.592-6.729-1.436-10h3.234c0.912,3.26,1.438,6.616,1.566,10H93.258z"/>
			<path fill="#EF963F" d="M59.26,52.452L59.26,52.452l-12.596,6.216l-12.598-6.216c-0.67-0.33-1.479-0.176-1.977,0.381
				c-0.5,0.556-0.568,1.375-0.168,2.006l13.334,21.054c0.306,0.482,0.836,0.775,1.408,0.775c0.57,0,1.102-0.293,1.407-0.775
				l13.335-21.054c0.398-0.631,0.328-1.45-0.17-2.006C60.738,52.276,59.93,52.122,59.26,52.452z M44.996,69.254L37.91,58.066
				l7.086,3.495V69.254z M48.33,69.254v-7.691l7.084-3.495L48.33,69.254z"/>
			<path fill="#EF963F" d="M61.604,45.628c-0.043-0.164-0.107-0.32-0.197-0.464l-0.002-0.006L48.07,24.104
				c-0.021-0.035-0.064-0.047-0.09-0.08c-0.299-0.435-0.791-0.695-1.318-0.695s-1.02,0.262-1.318,0.695
				c-0.024,0.033-0.066,0.045-0.09,0.08L31.92,45.159l-0.002,0.006c-0.088,0.144-0.154,0.3-0.197,0.464
				c-0.02,0.141-0.039,0.281-0.059,0.422c0,0.026,0.01,0.05,0.01,0.076c0.018,0.167,0.051,0.331,0.103,0.491
				c0.022,0.061,0.049,0.119,0.078,0.177c0.049,0.097,0.108,0.188,0.175,0.272c0.023,0.031,0.036,0.067,0.063,0.098
				c0.016,0.019,0.039,0.026,0.056,0.045c0.081,0.08,0.17,0.15,0.265,0.213c0.047,0.035,0.094,0.066,0.143,0.098
				c0.015,0.007,0.025,0.02,0.039,0.025l13.334,6.581c0.465,0.229,1.01,0.229,1.475,0l13.334-6.581
				c0.17-0.088,0.324-0.205,0.453-0.347c0.016-0.016,0.035-0.02,0.049-0.034c0.025-0.029,0.037-0.065,0.063-0.098
				c0.066-0.085,0.125-0.177,0.174-0.271c0.029-0.059,0.057-0.116,0.078-0.177c0.051-0.16,0.086-0.325,0.104-0.492
				c0-0.026,0.01-0.05,0.01-0.075c-0.006-0.086-0.018-0.171-0.035-0.255C61.623,45.741,61.615,45.684,61.604,45.628z M48.33,30.744
				l7.084,11.188l-7.084-3.496V30.744L48.33,30.744z M44.996,30.744v7.69L37.91,41.93L44.996,30.744z M46.662,50.772l-9.566-4.721
				l9.566-4.721l9.567,4.721L46.662,50.772z"/>
		</g>
	</g>
</g>
</svg>
