<?xml version="1.0" encoding="utf-8"?>
<!-- Generator: Adobe Illustrator 16.0.0, SVG Export Plug-In . SVG Version: 6.00 Build 0)  -->
<!DOCTYPE svg PUBLIC "-//W3C//DTD SVG 1.1//EN" "http://www.w3.org/Graphics/SVG/1.1/DTD/svg11.dtd">
<svg version="1.1" id="Capa_1" xmlns="http://www.w3.org/2000/svg" xmlns:xlink="http://www.w3.org/1999/xlink" x="0px" y="0px"
	 width="100px" height="100px" viewBox="0 0 100 100" enable-background="new 0 0 100 100" xml:space="preserve">
<g>
	<g>
		<path fill="#FFFFFF" d="M99.799,90.885l-3.964-23.779c-0.095-0.283-0.283-0.566-0.472-0.756
			c-2.454-7.455-8.495-13.213-16.141-15.195l-1.133-0.188c-1.699-0.472-3.587,0.094-4.813,1.51
			c-4.153,4.721-9.438,5.098-15.008,5.098c-5.568,0-10.854-0.377-15.006-5.098c-1.228-1.416-3.115-1.982-4.813-1.51l-1.133,0.283
			c-5.758,1.51-10.665,5.189-13.78,10.098H11.646c-0.095,0-0.095,0-0.189-0.094c0-0.094-0.094-0.188-0.094-0.377l2.453-8.779
			c2.171-6.889,6.324-8.965,14.441-11.041c0.377-0.095,0.66-0.283,0.85-0.473c0.66,0.566,1.415,1.039,2.17,1.416
			c0.283,0.189,0.566,0.189,0.85,0.189c0.661,0,1.321-0.378,1.699-1.039c0.472-0.943,0.095-2.076-0.85-2.548
			c-4.342-2.266-7.456-8.684-7.456-15.29c0-5.852,4.813-10.666,10.665-10.666c1.133,0,2.171,0.189,3.209,0.473
			c-1.038,2.548-1.604,5.285-1.604,8.211c0,16.14,9.722,29.729,21.235,29.729c11.326,0,21.332-13.873,21.332-29.729
			C80.357,9.532,70.824,0,59.025,0C51.57,0,44.963,3.869,41.188,9.721c-1.604-0.566-3.304-0.85-5.003-0.85
			c-5.097,0-9.627,2.737-12.176,6.796c-0.188-0.188-0.377-0.283-0.565-0.378c-1.416-0.754-2.832-1.037-4.437-1.037
			c-5.285-0.096-9.532,4.152-9.532,9.438c0,3.021,0.849,5.852,2.171,8.117c-4.342,1.133-8.212,2.832-10.005,8.589L0.13,45.869
			c-0.283,0.943-0.094,1.98,0.473,2.736c0.566,0.85,1.604,1.321,2.643,1.321h7.268c-0.095,0.377-0.283,0.755-0.378,1.132
			L7.682,59.93c-0.377,1.229-0.094,2.551,0.755,3.588c0.756,1.037,1.888,1.604,3.21,1.604h10.004
			c-0.283,0.662-0.472,1.322-0.66,1.982L17.024,90.98c-0.377,1.604-0.094,3.303,0.944,4.625c1.038,1.32,2.548,2.074,4.153,2.074
			h56.63h3.209h12.741c1.604,0,3.209-0.754,4.152-2.074C99.895,94.283,100.271,92.584,99.799,90.885z M43.452,13.402
			c0.095-0.095,0.188-0.189,0.283-0.378c0.095-0.095,0.095-0.283,0.188-0.378c2.926-5.285,8.589-8.871,15.103-8.871
			c7.834,0,14.439,5.19,16.705,12.27c-3.304,0.66-6.795-0.661-8.871-3.492c-0.661-0.85-1.795-1.039-2.644-0.378
			c-0.378,0.283-0.565,0.566-0.661,0.944c-0.095,0.094-0.095,0.188-0.188,0.283c-2.643,5.379-11.516,7.645-21.614,5.662
			C42.036,17.082,42.603,15.194,43.452,13.402z M48.737,23.5c7.551,0,13.781-2.36,16.99-6.796c2.358,2.076,5.284,3.209,8.399,3.209
			c0.755,0,1.604-0.094,2.358-0.283c0.096,0.566,0.096,1.039,0.096,1.605c0,13.874-8.212,26.048-17.557,26.048
			c-8.965,0-16.799-11.23-17.46-24.444C44.019,23.312,46.473,23.5,48.737,23.5z M4,46.152l1.321-4.72
			c1.133-3.869,3.492-5.002,8.211-6.135c0.283-0.094,0.566-0.188,0.756-0.377c0.472,0.377,0.85,0.66,1.415,0.943
			c0.283,0.188,0.566,0.188,0.85,0.188c0.661,0,1.321-0.378,1.699-1.038c0.472-0.943,0.095-2.076-0.755-2.549
			c-2.454-1.32-4.247-5.002-4.247-8.777c0-3.209,2.548-5.758,5.757-5.758c1.038,0,1.888,0.189,2.737,0.661
			c0.283,0.095,0.472,0.188,0.755,0.188c-0.472,1.416-0.755,2.926-0.755,4.531c0,5.379,1.793,10.665,4.625,14.346
			C20.706,39.072,15.703,40.96,12.4,46.15H4V46.152z M95.93,93.338c-0.188,0.189-0.565,0.566-1.228,0.566H81.961h-3.209H22.121
			c-0.66,0-1.038-0.377-1.227-0.566c-0.283-0.377-0.378-0.941-0.283-1.32l3.964-23.779c1.888-6.514,7.079-11.609,13.686-13.309
			l1.133-0.283c0.283-0.096,0.755,0.096,1.038,0.379c5.191,5.943,11.609,6.418,17.839,6.418c6.229,0,12.646-0.475,17.838-6.418
			c0.283-0.283,0.66-0.475,1.133-0.379l1.133,0.283c6.514,1.699,11.798,6.795,13.686,13.309l1.699,5.852
			c0.094,0.283,0.188,0.473,0.377,0.66l2.077,17.174C96.307,92.396,96.213,92.961,95.93,93.338z"/>
	</g>
</g>
</svg>
