<?xml version="1.0" encoding="utf-8"?>
<!-- Generator: Adobe Illustrator 16.0.0, SVG Export Plug-In . SVG Version: 6.00 Build 0)  -->
<!DOCTYPE svg PUBLIC "-//W3C//DTD SVG 1.1//EN" "http://www.w3.org/Graphics/SVG/1.1/DTD/svg11.dtd">
<svg version="1.1" id="Capa_1" xmlns="http://www.w3.org/2000/svg" xmlns:xlink="http://www.w3.org/1999/xlink" x="0px" y="0px"
	 width="100px" height="100px" viewBox="0 0 100 100" enable-background="new 0 0 100 100" xml:space="preserve">
<g>
	<g>
		<g>
			<path fill="#FFFFFF" d="M83.122,44.262c-2.711,0-4.918,2.207-4.918,4.918v16.394c0,2.711,2.207,4.918,4.918,4.918
				c2.712,0,4.919-2.207,4.919-4.918V49.18C88.041,46.469,85.834,44.262,83.122,44.262z M84.762,65.574
				c0,0.904-0.734,1.639-1.64,1.639c-0.901,0-1.64-0.734-1.64-1.639V49.18c0-0.904,0.735-1.639,1.64-1.639
				c0.903,0,1.64,0.734,1.64,1.639V65.574z"/>
		</g>
	</g>
	<g>
		<g>
			<path fill="#FFFFFF" d="M98.777,93.447l-2.541-16.521V47.542c0-4.54-2.654-8.459-6.487-10.32
				c2.928-2.082,4.849-5.492,4.849-9.353c0-6.326-5.146-11.476-11.476-11.476c-6.327,0-11.476,5.149-11.476,11.476
				c0,3.858,1.922,7.271,4.85,9.353c-2.241,1.088-4.077,2.877-5.215,5.088l-16.51,16.508c-1.849,1.851-1.896,4.808-0.179,6.734
				l-4.259,4.262l-8.196-8.196V44.262h3.278c0.905,0,1.639-0.732,1.639-1.639v-8.197c0-0.906-0.733-1.639-1.639-1.639h-4.918v-6.559
				c0-5.18-4.028-9.428-9.116-9.799c1.585-1.746,2.559-4.057,2.559-6.595C33.941,4.412,29.529,0,24.105,0S14.27,4.412,14.27,9.835
				c0,2.538,0.975,4.849,2.56,6.595c-5.088,0.371-9.116,4.619-9.116,9.799v6.559h-6.56v3.277h8.197h29.508h4.918v4.918h-3.278
				c-0.905,0-1.64,0.733-1.64,1.641v18.994L21.788,78.689H1.154v3.276h17.354l-2.12,2.119c-0.641,0.642-0.641,1.679,0,2.317
				L27.384,97.4v2.6h3.279v-2.6l22.471-22.474c0.644-0.641,0.644-1.678,0-2.315l-0.479-0.48l4.771-4.771
				c0.359,0.082,0.729,0.138,1.104,0.138c1.313,0,2.551-0.513,3.479-1.44l8-7.998V77.05v4.423l-7.882,11.821
				c-0.687,1.029-0.896,2.306-0.58,3.5c0.317,1.192,1.134,2.197,2.246,2.754c0.597,0.298,1.265,0.453,1.929,0.453h2.857
				c1.443,0,2.785-0.717,3.587-1.92l9.043-13.563c0.179-0.27,0.274-0.588,0.274-0.91v-4.918h3.513l2.534,16.488
				c0.433,2.795,2.798,4.822,5.623,4.822h0.005c1.661,0,3.235-0.723,4.317-1.984C98.557,96.752,99.032,95.09,98.777,93.447z
				 M24.105,3.28c3.617,0,6.558,2.941,6.558,6.557c0,3.617-2.94,6.559-6.558,6.559s-6.558-2.941-6.558-6.559
				C17.548,6.221,20.489,3.28,24.105,3.28z M37.221,32.788h-4.919v-6.559h-3.278v6.559h-9.836v-6.559H15.91v6.559h-4.918v-6.559
				c0-3.615,2.941-6.558,6.558-6.558h13.115c3.617,0,6.558,2.94,6.558,6.558v6.559H37.221z M29.023,94.404l-9.157-9.158l3.759-3.76
				l16.874-16.873l9.158,9.156L29.023,94.404z M74.926,27.87c0-4.52,3.678-8.197,8.196-8.197c4.521,0,8.196,3.678,8.196,8.197
				c0,1.695-0.518,3.271-1.4,4.579c-1.122-0.527-1.877-1.647-1.877-2.939h-3.279c0,2.164,1.063,4.083,2.715,5.279
				c-1.266,0.798-2.75,1.278-4.354,1.278C78.604,36.065,74.926,32.389,74.926,27.87z M59.691,63.736
				c-0.618,0.621-1.698,0.621-2.318,0l-0.28-0.281c-0.639-0.641-0.639-1.68,0-2.318l12.915-12.916v5.199L59.691,63.736z
				 M78.204,83.109l-8.767,13.149c-0.192,0.291-0.515,0.462-0.86,0.462h-2.856c-0.162,0-0.32-0.035-0.47-0.111
				c-0.362-0.18-0.492-0.49-0.537-0.656c-0.044-0.168-0.085-0.502,0.142-0.84l8.156-12.236c0.18-0.268,0.274-0.586,0.274-0.91
				v-3.277h4.918V83.109L78.204,83.109z M86.4,75.41h-6.559h-6.558V54.098v-6.557c0-0.513,0.062-1.008,0.149-1.494
				c0.017-0.079,0.022-0.157,0.041-0.233c0.094-0.429,0.229-0.838,0.387-1.238c0.055-0.137,0.106-0.272,0.168-0.406
				c1.291-2.838,4.138-4.825,7.451-4.825h3.277c4.521,0,8.197,3.677,8.197,8.197v27.87H86.4V75.41z M94.986,95.879
				c-0.459,0.535-1.129,0.844-1.834,0.844c-1.197,0-2.198-0.858-2.381-2.045l-2.461-15.988h4.883l2.348,15.259
				C95.646,94.641,95.443,95.346,94.986,95.879z"/>
		</g>
	</g>
	<g>
		<g>
			<path fill="#EE953F" d="M69.354,11.803L56.238,1.967c-0.498-0.375-1.16-0.433-1.717-0.156c-0.558,0.279-0.906,0.847-0.906,1.467
				v4.701L42.343,6.571c-0.472-0.055-0.936,0.087-1.288,0.396C40.701,7.28,40.5,7.727,40.5,8.196v11.476
				c0,0.472,0.202,0.918,0.555,1.229c0.353,0.31,0.815,0.453,1.288,0.396l11.272-1.408v4.7c0,0.644,0.375,1.226,0.963,1.492
				c0.216,0.101,0.447,0.147,0.677,0.147c0.39,0,0.774-0.14,1.08-0.405L69.45,14.348c0.37-0.326,0.577-0.803,0.559-1.297
				C69.988,12.559,69.747,12.1,69.354,11.803z M56.895,20.977v-2.943c0-0.471-0.201-0.918-0.556-1.229
				c-0.302-0.267-0.688-0.41-1.085-0.41c-0.066,0-0.136,0.004-0.203,0.013l-11.273,1.407v-7.76l11.273,1.407
				c0.473,0.056,0.938-0.087,1.288-0.397c0.354-0.312,0.556-0.758,0.556-1.229V6.559l8.873,6.654L56.895,20.977z"/>
		</g>
	</g>
</g>
</svg>
