<?xml version="1.0" encoding="utf-8"?>
<!-- Generator: Adobe Illustrator 16.0.0, SVG Export Plug-In . SVG Version: 6.00 Build 0)  -->
<!DOCTYPE svg PUBLIC "-//W3C//DTD SVG 1.1//EN" "http://www.w3.org/Graphics/SVG/1.1/DTD/svg11.dtd">
<svg version="1.1" id="Capa_1" xmlns="http://www.w3.org/2000/svg" xmlns:xlink="http://www.w3.org/1999/xlink" x="0px" y="0px"
	 width="100px" height="100px" viewBox="0 0 100 100" enable-background="new 0 0 100 100" xml:space="preserve">
<g>
	<g>
		<g>
			<path fill="#EF963F" d="M63.334,63.502V48.334c0-2.757-2.244-5-5-5H11.667c-2.756,0-5,2.243-5,5v15.167
				C2.868,64.277,0,67.645,0,71.666v10v16.668C0,99.254,0.747,100,1.667,100h6.667c0.92,0,1.667-0.746,1.667-1.666v-5h50v5
				c0,0.92,0.746,1.666,1.666,1.666h6.668c0.92,0,1.666-0.746,1.666-1.666V81.666v-10C70,67.645,67.132,64.277,63.334,63.502z
				 M10,48.333c0-0.918,0.749-1.667,1.667-1.667h46.667c0.918,0,1.666,0.749,1.666,1.667v15h-3.334v-6.668c0-2.756-2.242-5-5-5h-10
				c-2.756,0-5,2.244-5,5v6.668h-3.333v-6.668c0-2.756-2.244-5-5-5h-10c-2.757,0-5,2.244-5,5v6.668H10V48.333z M53.334,56.666v6.668
				H40v-6.668C40,55.748,40.749,55,41.667,55h10C52.585,55,53.334,55.748,53.334,56.666z M30,56.666v6.668H16.667v-6.668
				c0-0.918,0.749-1.666,1.667-1.666h10C29.251,55,30,55.748,30,56.666z M66.666,96.666h-3.332v-5c0-0.92-0.747-1.666-1.668-1.666
				H8.333c-0.92,0-1.667,0.746-1.667,1.666v5H3.333V83.334h63.333V96.666z M66.666,80H3.333v-8.334c0-2.756,2.243-5,5-5H15h16.667
				h6.667H55h6.666c2.758,0,5,2.244,5,5V80z"/>
		</g>
	</g>
	<g>
		<g>
			<path fill="#EF963F" d="M98.334,63.334H75c-0.92,0-1.666,0.746-1.666,1.666v13.334V90h3.332V80h20v10H100V78.334V65
				C100,64.08,99.254,63.334,98.334,63.334z M96.666,76.666h-20v-10h20V76.666z"/>
		</g>
	</g>
	<g>
		<g>
			<rect x="83.334" y="70" fill="#EF963F" width="6.666" height="3.334"/>
		</g>
	</g>
	<g>
		<g>
			<path fill="#EF963F" d="M94.915,49.472l-3.333-10c-0.229-0.68-0.863-1.138-1.582-1.138h-6.666c-0.719,0-1.354,0.458-1.582,1.14
				l-3.334,10c-0.17,0.508-0.083,1.067,0.23,1.502c0.313,0.436,0.815,0.689,1.352,0.689h5v5h-3.334V60h10v-3.334h-3.332v-5h5
				c0.534,0,1.037-0.256,1.352-0.691C94.998,50.539,95.084,49.98,94.915,49.472z M82.313,48.333l2.224-6.667H88.8l2.222,6.667
				H82.313z"/>
		</g>
	</g>
	<g>
		<g>
			<path fill="#EF963F" d="M99.016,21.812L50.682,0.144c-0.435-0.192-0.93-0.192-1.363,0L0.985,21.812
				C0.385,22.082,0,22.677,0,23.333v20h3.333V24.412L50,3.494l46.666,20.92v18.92H100v-20C100,22.677,99.615,22.082,99.016,21.812z"
				/>
		</g>
	</g>
	<g>
		<g>
			<path fill="#EF963F" d="M61.505,23.058l-3.288,0.553c0.078,0.455,0.117,0.922,0.117,1.39c0,4.595-3.738,8.333-8.334,8.333
				c-4.595,0-8.333-3.738-8.333-8.333s3.738-8.333,8.333-8.333c0.953,0,1.891,0.16,2.779,0.475L53.891,14
				c-1.25-0.441-2.558-0.665-3.892-0.665c-6.433,0-11.667,5.233-11.667,11.667s5.233,11.667,11.667,11.667
				c6.435,0,11.666-5.233,11.666-11.667C61.666,24.347,61.611,23.694,61.505,23.058z"/>
		</g>
	</g>
	<g>
		<g>
			<path fill="#EF963F" d="M60.488,13.823L50,24.31l-2.155-2.154l-2.357,2.357l3.333,3.332c0.325,0.325,0.751,0.488,1.178,0.488
				c0.427,0,0.854-0.164,1.178-0.488l11.669-11.666L60.488,13.823z"/>
		</g>
	</g>
</g>
</svg>
