<?xml version="1.0" encoding="utf-8"?>
<!-- Generator: Adobe Illustrator 16.0.0, SVG Export Plug-In . SVG Version: 6.00 Build 0)  -->
<!DOCTYPE svg PUBLIC "-//W3C//DTD SVG 1.1//EN" "http://www.w3.org/Graphics/SVG/1.1/DTD/svg11.dtd">
<svg version="1.1" id="Capa_1" xmlns="http://www.w3.org/2000/svg" xmlns:xlink="http://www.w3.org/1999/xlink" x="0px" y="0px"
	 width="100px" height="100px" viewBox="0 0 100 100" enable-background="new 0 0 100 100" xml:space="preserve">
<g>
	<g>
		<g>
			<path fill="#FFFFFF" d="M83.122,44.262c-2.711,0-4.918,2.207-4.918,4.918v16.394c0,2.711,2.207,4.918,4.918,4.918
				c2.712,0,4.919-2.207,4.919-4.918V49.18C88.041,46.469,85.834,44.262,83.122,44.262z M84.762,65.574
				c0,0.904-0.734,1.639-1.64,1.639c-0.902,0-1.639-0.734-1.639-1.639V49.18c0-0.904,0.735-1.639,1.639-1.639
				c0.904,0,1.64,0.734,1.64,1.639V65.574z"/>
		</g>
	</g>
	<g>
		<g>
			<path fill="#FFFFFF" d="M98.778,93.447l-2.541-16.521V47.542c0-4.54-2.655-8.459-6.488-10.32
				c2.928-2.082,4.849-5.492,4.849-9.353c0-6.326-5.146-11.476-11.476-11.476c-6.327,0-11.475,5.149-11.475,11.476
				c0,3.858,1.921,7.271,4.849,9.353c-2.241,1.088-4.077,2.877-5.215,5.088l-16.51,16.509c-1.848,1.85-1.896,4.807-0.178,6.734
				l-4.259,4.262l-8.196-8.197V44.262h3.278c0.905,0,1.639-0.732,1.639-1.639v-8.197c0-0.906-0.733-1.639-1.639-1.639h-4.918v-6.559
				c0-5.18-4.028-9.428-9.116-9.799c1.585-1.746,2.559-4.057,2.559-6.595C33.941,4.412,29.529,0,24.105,0S14.27,4.412,14.27,9.835
				c0,2.538,0.975,4.849,2.56,6.595c-5.088,0.371-9.116,4.619-9.116,9.799v6.559H1.154v3.277h8.197h29.508h4.918v4.918h-3.278
				c-0.905,0-1.64,0.733-1.64,1.641v18.994L21.788,78.689H1.154v3.277h17.354l-2.12,2.119c-0.641,0.641-0.641,1.678,0,2.318
				L27.384,97.4v2.6h3.279v-2.6l22.471-22.473c0.643-0.641,0.643-1.678,0-2.316l-0.479-0.48l4.771-4.771
				c0.359,0.082,0.729,0.137,1.104,0.137c1.313,0,2.55-0.512,3.478-1.441l8-7.998v18.992v4.422l-7.882,11.822
				c-0.686,1.029-0.896,2.305-0.58,3.5c0.317,1.193,1.133,2.197,2.246,2.754c0.596,0.297,1.264,0.453,1.929,0.453h2.857
				c1.443,0,2.785-0.717,3.587-1.92l9.043-13.563c0.179-0.27,0.275-0.588,0.275-0.91v-4.918h3.512l2.535,16.488
				c0.432,2.795,2.797,4.822,5.623,4.822h0.004c1.662,0,3.235-0.723,4.317-1.984C98.557,96.752,99.032,95.09,98.778,93.447z
				 M24.105,3.28c3.617,0,6.558,2.941,6.558,6.557c0,3.617-2.94,6.559-6.558,6.559s-6.558-2.941-6.558-6.559
				C17.548,6.221,20.489,3.28,24.105,3.28z M37.221,32.788h-4.919v-6.559h-3.278v6.559h-9.836v-6.559H15.91v6.559h-4.918v-6.559
				c0-3.615,2.941-6.558,6.558-6.558h13.115c3.617,0,6.558,2.94,6.558,6.558v6.559H37.221z M29.023,94.404l-9.157-9.158l3.759-3.76
				l16.874-16.873l9.158,9.156L29.023,94.404z M74.926,27.87c0-4.52,3.677-8.197,8.196-8.197c4.521,0,8.197,3.678,8.197,8.197
				c0,1.695-0.518,3.271-1.401,4.579c-1.122-0.527-1.877-1.647-1.877-2.939h-3.279c0,2.164,1.062,4.083,2.715,5.279
				c-1.266,0.798-2.751,1.278-4.354,1.278C78.603,36.065,74.926,32.389,74.926,27.87z M59.691,63.736
				c-0.618,0.621-1.698,0.621-2.318,0l-0.28-0.281c-0.639-0.641-0.639-1.68,0-2.318l12.915-12.916v5.199L59.691,63.736z
				 M78.204,83.109l-8.767,13.15c-0.192,0.291-0.514,0.461-0.86,0.461H65.72c-0.161,0-0.319-0.035-0.469-0.111
				c-0.363-0.18-0.492-0.49-0.537-0.656c-0.044-0.168-0.085-0.502,0.141-0.84l8.156-12.236c0.18-0.268,0.275-0.586,0.275-0.91
				v-3.277h4.918V83.109L78.204,83.109z M86.401,75.41h-6.559h-6.558V54.098v-6.557c0-0.513,0.061-1.008,0.15-1.494
				c0.016-0.079,0.022-0.157,0.041-0.233c0.093-0.429,0.229-0.838,0.386-1.238c0.055-0.137,0.107-0.272,0.169-0.406
				c1.29-2.838,4.137-4.825,7.451-4.825h3.277c4.521,0,8.197,3.677,8.197,8.197v27.87H86.401L86.401,75.41z M94.986,95.879
				c-0.459,0.535-1.128,0.844-1.833,0.844c-1.198,0-2.199-0.859-2.382-2.045l-2.46-15.988h4.882l2.348,15.258
				C95.646,94.641,95.444,95.346,94.986,95.879z"/>
		</g>
	</g>
	<g>
		<g>
			<path fill="#EE953F" d="M40.501,13.051c-0.019,0.494,0.188,0.971,0.559,1.297l13.115,11.476c0.305,0.266,0.69,0.405,1.08,0.405
				c0.229,0,0.461-0.047,0.677-0.147c0.588-0.267,0.963-0.849,0.963-1.492v-4.7l11.272,1.408c0.473,0.057,0.936-0.087,1.288-0.396
				c0.353-0.312,0.555-0.758,0.555-1.229V8.196c0-0.469-0.201-0.916-0.555-1.229c-0.353-0.31-0.816-0.451-1.288-0.396L56.895,7.979
				V3.278c0-0.62-0.35-1.188-0.906-1.467c-0.557-0.276-1.219-0.219-1.717,0.156l-13.114,9.836
				C40.763,12.1,40.521,12.559,40.501,13.051z M44.743,13.213l8.873-6.654v3.277c0,0.471,0.201,0.917,0.555,1.229
				c0.352,0.311,0.815,0.453,1.288,0.397l11.273-1.407v7.76l-11.273-1.407c-0.067-0.009-0.137-0.013-0.203-0.013
				c-0.397,0-0.783,0.144-1.085,0.41c-0.354,0.311-0.555,0.758-0.555,1.229v2.943L44.743,13.213z"/>
		</g>
	</g>
</g>
</svg>
