<?xml version="1.0" encoding="utf-8"?>
<!-- Generator: Adobe Illustrator 16.0.0, SVG Export Plug-In . SVG Version: 6.00 Build 0)  -->
<!DOCTYPE svg PUBLIC "-//W3C//DTD SVG 1.1//EN" "http://www.w3.org/Graphics/SVG/1.1/DTD/svg11.dtd">
<svg version="1.1" id="Capa_1" xmlns="http://www.w3.org/2000/svg" xmlns:xlink="http://www.w3.org/1999/xlink" x="0px" y="0px"
	 width="100px" height="100px" viewBox="0 0 100 100" enable-background="new 0 0 100 100" xml:space="preserve">
<g>
	<g>
		<g>
			<path fill="#EF963F" d="M98.387,48.388h-11.29c0-3.549-2.903-6.452-6.452-6.452H67.742c-3.549,0-6.451,2.903-6.451,6.452H38.709
				c0-3.549-2.902-6.452-6.451-6.452H19.355c-3.549,0-6.452,2.903-6.452,6.452H1.613C0.645,48.388,0,49.032,0,50v9.678
				c0,0.967,0.645,1.613,1.613,1.613h1.613v37.096c0,0.969,0.646,1.613,1.613,1.613h90.322c0.968,0,1.613-0.645,1.613-1.613V61.291
				h1.612c0.969,0,1.613-0.646,1.613-1.613V50C100,49.032,99.355,48.388,98.387,48.388z M67.742,45.161h12.902
				c1.775,0,3.227,1.451,3.227,3.227H64.516C64.516,46.612,65.968,45.161,67.742,45.161z M19.355,45.161h12.902
				c1.774,0,3.227,1.451,3.227,3.227H16.129C16.129,46.612,17.58,45.161,19.355,45.161z M93.549,96.774H6.452V61.291h87.097V96.774z
				 M96.774,58.064H3.226v-6.451h93.549V58.064z"/>
		</g>
	</g>
	<g>
		<g>
			<path fill="#EF963F" d="M27.42,77.42c2.741,0,4.838-2.098,4.838-4.84c0-2.741-2.097-4.838-4.838-4.838H14.516
				c-2.742,0-4.839,2.097-4.839,4.838c0,2.742,2.097,4.84,4.839,4.84h1.613v12.902h-3.226v3.227h16.129v-3.227h-3.226V77.42H27.42z
				 M22.58,90.322h-3.225V77.42h3.225V90.322z M14.516,74.193c-0.968,0-1.613-0.645-1.613-1.613c0-0.967,0.645-1.612,1.613-1.612
				H27.42c0.967,0,1.612,0.646,1.612,1.612c0,0.969-0.646,1.613-1.612,1.613H14.516z"/>
		</g>
	</g>
	<g>
		<g>
			<path fill="#EF963F" d="M56.451,77.42c2.742,0,4.84-2.098,4.84-4.84c0-2.741-2.098-4.838-4.84-4.838H43.549
				c-2.742,0-4.84,2.097-4.84,4.838c0,2.742,2.098,4.84,4.84,4.84h1.612v12.902h-3.226v3.227h16.129v-3.227h-3.226V77.42H56.451z
				 M51.613,90.322h-3.227V77.42h3.227V90.322z M43.549,74.193c-0.969,0-1.613-0.645-1.613-1.613c0-0.967,0.645-1.612,1.613-1.612
				h12.902c0.969,0,1.613,0.646,1.613,1.612c0,0.969-0.645,1.613-1.613,1.613H43.549z"/>
		</g>
	</g>
	<g>
		<g>
			<path fill="#EF963F" d="M85.484,77.42c2.741,0,4.838-2.098,4.838-4.84c0-2.741-2.097-4.838-4.838-4.838H72.58
				c-2.741,0-4.838,2.097-4.838,4.838c0,2.742,2.097,4.84,4.838,4.84h1.613v12.902h-3.226v3.227h16.129v-3.227h-3.226V77.42H85.484z
				 M80.645,90.322H77.42V77.42h3.225V90.322z M72.58,74.193c-0.967,0-1.612-0.645-1.612-1.613c0-0.967,0.646-1.612,1.612-1.612
				h12.904c0.967,0,1.612,0.646,1.612,1.612c0,0.969-0.646,1.613-1.612,1.613H72.58z"/>
		</g>
	</g>
	<g>
		<g>
			<path fill="#EF963F" d="M98.387,0H1.613C0.645,0,0,0.645,0,1.613v6.452c0,0.968,0.645,1.613,1.613,1.613h8.064v3.548
				c-1.935,0.646-3.226,2.419-3.226,4.517v3.226c0,0.968,0.645,1.613,1.613,1.613h6.452c0.968,0,1.613-0.645,1.613-1.613v-3.226
				c0-2.097-1.29-3.871-3.226-4.517V9.677h9.677v3.548c-1.936,0.646-3.225,2.419-3.225,4.517v3.226c0,0.968,0.645,1.613,1.612,1.613
				h6.452c0.967,0,1.612-0.645,1.612-1.613v-3.226c0-2.097-1.29-3.871-3.226-4.517V9.677h9.678v3.548
				c-1.936,0.646-3.227,2.419-3.227,4.517v3.226c0,0.968,0.646,1.613,1.613,1.613h6.451c0.969,0,1.613-0.645,1.613-1.613v-3.226
				c0-2.097-1.291-3.871-3.227-4.517V9.677h9.678v3.548c-1.936,0.646-3.226,2.419-3.226,4.517v3.226
				c0,0.968,0.646,1.613,1.613,1.613h6.451c0.968,0,1.613-0.645,1.613-1.613v-3.226c0-2.097-1.29-3.871-3.226-4.517V9.677h9.678
				v3.548c-1.936,0.646-3.227,2.419-3.227,4.517v3.226c0,0.968,0.645,1.613,1.613,1.613h6.451c0.968,0,1.613-0.645,1.613-1.613
				v-3.226c0-2.097-1.291-3.871-3.227-4.517V9.677h9.678v3.548c-1.936,0.646-3.226,2.419-3.226,4.517v3.226
				c0,0.968,0.646,1.613,1.612,1.613h6.452c0.968,0,1.612-0.645,1.612-1.613v-3.226c0-2.097-1.289-3.871-3.225-4.517V9.677h9.677
				v3.548c-1.936,0.646-3.226,2.419-3.226,4.517v3.226c0,0.968,0.645,1.613,1.613,1.613h6.451c0.968,0,1.613-0.645,1.613-1.613
				v-3.226c0-2.097-1.291-3.871-3.227-4.517V9.677h8.064c0.969,0,1.613-0.645,1.613-1.613V1.613C100,0.645,99.355,0,98.387,0z
				 M12.903,19.355H9.677v-1.613c0-0.968,0.646-1.613,1.613-1.613c0.967,0,1.613,0.646,1.613,1.613V19.355z M25.807,19.355H22.58
				v-1.613c0-0.968,0.646-1.613,1.613-1.613s1.613,0.646,1.613,1.613V19.355z M38.709,19.355h-3.225v-1.613
				c0-0.968,0.645-1.613,1.612-1.613s1.612,0.646,1.612,1.613V19.355z M51.613,19.355h-3.227v-1.613
				c0-0.968,0.646-1.613,1.613-1.613s1.613,0.646,1.613,1.613V19.355z M64.516,19.355h-3.225v-1.613
				c0-0.968,0.645-1.613,1.612-1.613s1.612,0.646,1.612,1.613V19.355z M77.42,19.355h-3.227v-1.613c0-0.968,0.646-1.613,1.613-1.613
				s1.613,0.646,1.613,1.613V19.355z M90.322,19.355h-3.226v-1.613c0-0.968,0.646-1.613,1.612-1.613
				c0.969,0,1.613,0.646,1.613,1.613V19.355z M96.774,6.452H3.226V3.226h93.549V6.452z"/>
		</g>
	</g>
	<g>
		<g>
			<path fill="#EF963F" d="M27.42,25.807h-3.227c-2.742,0-4.838,2.097-4.838,4.838v3.226c0,2.742,2.096,4.838,4.838,4.838h3.227
				c2.741,0,4.838-2.097,4.838-4.838v-3.226C32.258,27.903,30.161,25.807,27.42,25.807z M29.032,33.871
				c0,0.968-0.646,1.613-1.612,1.613h-3.227c-0.968,0-1.613-0.645-1.613-1.613v-3.226c0-0.968,0.646-1.613,1.613-1.613h3.227
				c0.967,0,1.612,0.645,1.612,1.613V33.871z"/>
		</g>
	</g>
	<g>
		<g>
			<path fill="#EF963F" d="M75.807,25.807H72.58c-2.741,0-4.838,2.097-4.838,4.838v3.226c0,2.742,2.097,4.838,4.838,4.838h3.227
				c2.742,0,4.838-2.097,4.838-4.838v-3.226C80.645,27.903,78.549,25.807,75.807,25.807z M77.42,33.871
				c0,0.968-0.646,1.613-1.613,1.613H72.58c-0.967,0-1.612-0.645-1.612-1.613v-3.226c0-0.968,0.646-1.613,1.612-1.613h3.227
				c0.968,0,1.613,0.645,1.613,1.613V33.871z"/>
		</g>
	</g>
</g>
</svg>
