<?xml version="1.0" encoding="utf-8"?>
<!-- Generator: Adobe Illustrator 16.0.0, SVG Export Plug-In . SVG Version: 6.00 Build 0)  -->
<!DOCTYPE svg PUBLIC "-//W3C//DTD SVG 1.1//EN" "http://www.w3.org/Graphics/SVG/1.1/DTD/svg11.dtd">
<svg version="1.1" id="Layer_1" xmlns="http://www.w3.org/2000/svg" xmlns:xlink="http://www.w3.org/1999/xlink" x="0px" y="0px"
	 width="100px" height="100px" viewBox="0 0 100 100" enable-background="new 0 0 100 100" xml:space="preserve">
<g>
	<g>
		<g>
			<path fill="#EF963F" d="M95.161,54.839V33.871c0-2.668-2.171-4.839-4.839-4.839h-3.227c-1.242,0-2.367,0.484-3.226,1.258
				c-0.858-0.773-1.981-1.258-3.228-1.258H77.42c-1.244,0-2.368,0.484-3.227,1.258c-0.857-0.773-1.982-1.258-3.227-1.258h-3.226
				c-2.668,0-4.839,2.171-4.839,4.839v20.697c-3.723-2.58-9.151-4.775-17.104-5.704l2.541-17.784
				c0.031-0.214,0.047-0.433,0.047-0.649c0-2.551-2.074-4.625-4.625-4.625h-14.73V11.29c0-0.889,0.724-1.613,1.613-1.613h12.903
				c2.668,0,4.839-2.17,4.839-4.838S46.215,0,43.547,0H29.032c-5.337,0-9.677,4.341-9.677,9.677v16.129H4.624
				C2.074,25.806,0,27.88,0,30.431c0,0.217,0.016,0.436,0.047,0.654l3.887,27.207C0.1,62.856,0,67.361,0,67.742
				c0,2.813,1.819,5.185,4.334,6.065c-0.699,1.03-1.108,2.273-1.108,3.611c0,1.719,0.686,3.271,1.786,4.43
				C2.027,83.5,0,86.679,0,90.322C0,95.66,4.34,100,9.677,100h48.388h3.227H100V66.129v-1.612v-4.838
				C100,57.011,97.829,54.839,95.161,54.839z M85.484,33.871c0-0.89,0.724-1.612,1.611-1.612h3.227c0.889,0,1.613,0.725,1.613,1.612
				v20.968h-6.451V33.871L85.484,33.871z M75.807,33.871c0-0.89,0.726-1.612,1.613-1.612h3.225c0.89,0,1.613,0.725,1.613,1.612
				v20.968h-6.451V33.871L75.807,33.871z M66.129,33.871c0-0.89,0.725-1.612,1.613-1.612h3.226c0.89,0,1.612,0.725,1.612,1.612
				v20.968h-6.451V33.871z M40.323,3.226h3.226c0.889,0,1.613,0.725,1.613,1.612s-0.724,1.613-1.613,1.613h-3.226V3.226z
				 M33.871,3.226h3.226v3.226h-3.226V3.226z M22.581,9.677c0-3.558,2.894-6.451,6.452-6.451h1.613v3.226
				c-2.667,0-4.838,2.171-4.838,4.839v14.516h-3.226L22.581,9.677L22.581,9.677z M3.473,32.259l-0.232-1.625
				c-0.01-0.068-0.015-0.135-0.015-0.203c0-0.771,0.627-1.397,1.398-1.397h14.731h9.677h14.73c0.771,0,1.398,0.627,1.398,1.397
				c0,0.068-0.005,0.135-0.013,0.198l-0.234,1.63h-4.592v3.226h4.13l-0.921,6.452H4.855l-0.921-6.452h33.163v-3.226H3.473z
				 M43.073,45.161l-0.487,3.413c-1.728-0.119-3.547-0.187-5.489-0.187h-3.226c-14.055,0-22.265,3.272-27.076,7.127L5.316,45.16
				L43.073,45.161L43.073,45.161z M3.226,67.742c0-0.162,0.35-16.129,30.646-16.129h3.226c30.085,0,30.638,15.479,30.646,16.129
				c0,1.778-1.447,3.226-3.227,3.226h-1.613h-1.611H9.677H6.452C4.672,70.968,3.226,69.521,3.226,67.742z M9.677,80.644
				c-1.779,0-3.226-1.445-3.226-3.225s1.447-3.227,3.226-3.227h51.614c1.777,0,3.225,1.447,3.225,3.227
				c0,1.778-1.445,3.225-3.225,3.225H9.677z M54.559,83.871l-6.618,7.722l-17.65-7.722H54.559z M61.291,96.774h-3.227H9.677
				c-3.558,0-6.452-2.895-6.452-6.452s2.894-6.451,6.452-6.451h12.566l26.59,11.634l9.974-11.634h2.483
				c3.558,0,6.451,2.894,6.451,6.451C67.742,93.881,64.85,96.774,61.291,96.774z M65.958,81.849c1.099-1.158,1.784-2.711,1.784-4.43
				c0-1.182-0.342-2.273-0.896-3.227h23.478v16.129H70.968c0-1.133-0.206-2.215-0.563-3.227h10.24v-3.226h-12.16
				C67.762,83.065,66.911,82.377,65.958,81.849z M96.773,64.517h-3.226v3.227h3.226v29.031H68.484
				c0.836-0.932,1.492-2.021,1.918-3.225h23.146V70.968H70.07c0.556-0.953,0.896-2.046,0.896-3.226H90.32v-3.228H70.421
				c-0.524-1.793-1.56-4.121-3.579-6.451h28.319c0.889,0,1.612,0.724,1.612,1.613V64.517L96.773,64.517z"/>
			<rect x="83.871" y="83.871" fill="#EF963F" width="3.227" height="3.226"/>
			<rect x="20.968" y="54.839" fill="#EF963F" width="3.226" height="3.227"/>
			<rect x="27.419" y="58.063" fill="#EF963F" width="3.226" height="3.228"/>
			<rect x="33.871" y="54.839" fill="#EF963F" width="3.226" height="3.227"/>
			<rect x="43.548" y="59.679" fill="#EF963F" width="3.226" height="3.226"/>
			<rect x="51.613" y="54.839" fill="#EF963F" width="3.226" height="3.227"/>
			<rect x="11.291" y="61.291" fill="#EF963F" width="3.226" height="3.226"/>
		</g>
	</g>
</g>
</svg>
