<?xml version="1.0" encoding="utf-8"?>
<!-- Generator: Adobe Illustrator 16.0.0, SVG Export Plug-In . SVG Version: 6.00 Build 0)  -->
<!DOCTYPE svg PUBLIC "-//W3C//DTD SVG 1.1//EN" "http://www.w3.org/Graphics/SVG/1.1/DTD/svg11.dtd">
<svg version="1.1" id="Capa_1" xmlns="http://www.w3.org/2000/svg" xmlns:xlink="http://www.w3.org/1999/xlink" x="0px" y="0px"
	 width="100px" height="100px" viewBox="0 0 100 100" enable-background="new 0 0 100 100" xml:space="preserve">
<g>
	<g>
		<g>
			<path fill="#EF963F" d="M99.247,93.278c-2.061-1.636-4.936-1.634-6.992,0.006l-3.051,2.429c-0.627,0.499-1.504,0.501-2.132,0.002
				l-3.071-2.438c-2.061-1.635-4.936-1.633-6.993,0.007l-3.046,2.426c-0.629,0.5-1.506,0.5-2.135,0l-3.047-2.427
				c-2.057-1.639-4.934-1.641-6.992-0.006l-3.076,2.439c-0.627,0.498-1.502,0.498-2.129,0l-3.076-2.439
				c-2.061-1.635-4.934-1.633-6.992,0.007l-3.05,2.429c-0.627,0.499-1.504,0.5-2.132,0.001l-3.075-2.44
				c-2.057-1.633-4.93-1.631-6.987,0.002l-3.074,2.441c-0.628,0.497-1.505,0.497-2.132-0.003l-3.05-2.43
				c-2.057-1.64-4.933-1.642-6.993-0.007l-3.075,2.439c-0.627,0.498-1.503,0.498-2.13,0l-3.08-2.445
				c-2.057-1.631-4.929-1.631-6.985,0c-0.844,0.67-0.986,1.898-0.315,2.744c0.671,0.845,1.898,0.985,2.743,0.314
				c0.627-0.496,1.503-0.497,2.13,0l3.08,2.445c2.056,1.633,4.929,1.633,6.985,0l3.075-2.439c0.628-0.499,1.505-0.498,2.132,0.002
				l3.05,2.43c2.058,1.64,4.934,1.642,6.994,0.006l3.075-2.44c0.626-0.498,1.503-0.498,2.13-0.001l3.075,2.441
				c2.06,1.636,4.936,1.633,6.993-0.006l3.05-2.43c0.627-0.5,1.503-0.501,2.131-0.002l3.076,2.44
				c1.026,0.815,2.26,1.224,3.491,1.224c1.232,0,2.466-0.408,3.492-1.225l3.076-2.44c0.627-0.498,1.504-0.497,2.131,0.002
				l3.047,2.427c2.063,1.642,4.94,1.642,7.002,0l3.045-2.427c0.627-0.499,1.504-0.5,2.134-0.002l3.071,2.438
				c2.061,1.635,4.935,1.632,6.992-0.006l3.049-2.431c0.627-0.5,1.504-0.5,2.133-0.002c0.846,0.67,2.072,0.529,2.744-0.315
				C100.233,95.176,100.093,93.948,99.247,93.278z"/>
		</g>
	</g>
	<g>
		<g>
			<path fill="#EF963F" d="M99.248,80.628c-2.061-1.636-4.936-1.633-6.992,0.007l-3.051,2.428c-0.627,0.5-1.503,0.5-2.132,0.002
				l-3.071-2.438c-2.061-1.634-4.936-1.631-6.993,0.008l-3.046,2.426c-0.629,0.5-1.506,0.5-2.135,0l-3.047-2.428
				c-2.057-1.638-4.934-1.641-6.992-0.006l-3.076,2.441c-0.627,0.498-1.502,0.498-2.129,0l-3.076-2.441
				c-2.061-1.634-4.936-1.631-6.993,0.008l-3.05,2.428c-0.627,0.5-1.504,0.502-2.132,0.002l-3.075-2.44
				c-2.057-1.632-4.93-1.632-6.987,0.001l-3.074,2.441c-0.628,0.498-1.505,0.498-2.132-0.002l-3.05-2.43
				c-2.058-1.64-4.933-1.642-6.993-0.007l-3.075,2.44c-0.627,0.496-1.503,0.496-2.13,0l-3.08-2.445
				c-2.056-1.632-4.928-1.633-6.985,0c-0.845,0.67-0.986,1.898-0.315,2.743s1.898,0.985,2.743,0.315c0.627-0.498,1.503-0.498,2.13,0
				l3.08,2.444c2.057,1.634,4.929,1.634,6.986,0l3.074-2.438c0.628-0.5,1.505-0.498,2.132,0.002l3.05,2.43
				c2.058,1.639,4.934,1.641,6.994,0.005l3.075-2.44c0.626-0.498,1.502-0.498,2.13,0l3.075,2.44c2.06,1.636,4.936,1.634,6.993-0.006
				l3.05-2.429c0.627-0.5,1.504-0.502,2.132-0.002l3.076,2.439c1.026,0.814,2.26,1.225,3.491,1.225c1.232,0,2.466-0.408,3.492-1.226
				l3.076-2.44c0.627-0.498,1.504-0.496,2.131,0.002l3.047,2.428c2.062,1.641,4.939,1.641,7.002,0l3.045-2.428
				c0.627-0.498,1.504-0.5,2.133-0.002l3.072,2.438c2.06,1.636,4.936,1.631,6.992-0.007l3.049-2.43c0.629-0.5,1.504-0.5,2.133-0.002
				c0.845,0.67,2.072,0.529,2.742-0.315C100.234,82.525,100.093,81.298,99.248,80.628z"/>
		</g>
	</g>
	<g>
		<g>
			<path fill="#EF963F" d="M99.248,67.977c-2.061-1.637-4.936-1.633-6.992,0.006l-3.051,2.429c-0.627,0.5-1.504,0.501-2.132,0.002
				l-3.071-2.438c-2.061-1.635-4.936-1.631-6.993,0.008l-3.046,2.427c-0.629,0.5-1.506,0.5-2.135,0l-3.047-2.427
				c-2.057-1.639-4.932-1.643-6.992-0.008l-3.076,2.441c-0.627,0.498-1.502,0.498-2.129,0l-3.076-2.441
				c-2.061-1.635-4.935-1.631-6.993,0.008l-3.05,2.429c-0.627,0.5-1.504,0.5-2.132,0.002l-3.075-2.44
				c-2.057-1.634-4.93-1.633-6.987,0l-3.074,2.441c-0.628,0.499-1.505,0.498-2.133-0.002l-3.05-2.43
				c-2.057-1.639-4.933-1.643-6.993-0.008l-3.075,2.441c-0.627,0.497-1.503,0.497-2.13,0l-3.08-2.445
				c-2.056-1.633-4.928-1.633-6.985,0c-0.844,0.67-0.986,1.898-0.315,2.744c0.671,0.844,1.898,0.984,2.743,0.314
				c0.627-0.498,1.503-0.497,2.13,0l3.08,2.445c2.057,1.631,4.929,1.633,6.986,0l3.075-2.44c0.628-0.498,1.504-0.497,2.132,0.002
				l3.05,2.431c2.058,1.639,4.934,1.642,6.994,0.006l3.075-2.441c0.626-0.497,1.502-0.498,2.13,0l3.076,2.439
				c2.06,1.637,4.936,1.633,6.993-0.006l3.05-2.429c0.626-0.499,1.503-0.5,2.132-0.002l3.076,2.44
				c1.027,0.815,2.26,1.225,3.492,1.225c1.231,0,2.465-0.408,3.492-1.225l3.075-2.44c0.628-0.498,1.505-0.497,2.132,0.002
				l3.047,2.427c2.063,1.641,4.939,1.641,7.002,0l3.045-2.427c0.627-0.499,1.504-0.501,2.133-0.002l3.072,2.438
				c2.06,1.635,4.935,1.631,6.992-0.006l3.049-2.431c0.629-0.499,1.504-0.5,2.133-0.001c0.845,0.67,2.072,0.527,2.744-0.316
				C100.234,69.875,100.094,68.646,99.248,67.977z"/>
		</g>
	</g>
	<g>
		<g>
			<path fill="#EF963F" d="M80.43,0.001c-8.83,0-16.012,7.183-16.012,16.013v21.068H29.271v-7.049h20.976
				c1.079,0,1.952-0.875,1.952-1.953s-0.874-1.953-1.952-1.953H29.271V16.012c0-6.676,5.431-12.105,12.105-12.105
				c6.676,0,12.105,5.431,12.105,12.105v4.141c0,1.078,0.875,1.951,1.953,1.951s1.953-0.873,1.953-1.951v-4.141
				C57.389,7.184,50.205,0,41.377,0S25.365,7.184,25.365,16.012v15.816H5.514c-1.079,0-1.953,0.875-1.953,1.953
				s0.875,1.953,1.953,1.953h19.853v28.508c0,1.079,0.875,1.952,1.953,1.952s1.953-0.874,1.953-1.952v-1.405h35.146v1.405
				c0,1.079,0.874,1.952,1.952,1.952s1.953-0.874,1.953-1.952V16.014c0-6.677,5.431-12.106,12.106-12.106
				c6.674,0,12.105,5.431,12.105,12.106v4.14c0,1.077,0.874,1.952,1.952,1.952c1.077,0,1.952-0.875,1.952-1.952v-4.14
				C96.439,7.184,89.258,0.001,80.43,0.001z M64.418,58.932H29.271v-6.99h35.146V58.932z M64.418,48.036H29.271v-7.049h35.146
				V48.036z"/>
		</g>
	</g>
	<g>
		<g>
			<path fill="#EF963F" d="M51.38,26.699c-0.363-0.363-0.866-0.572-1.381-0.572c-0.513,0-1.017,0.209-1.379,0.572
				c-0.363,0.363-0.572,0.867-0.572,1.38c0,0.515,0.209,1.017,0.572,1.38c0.362,0.365,0.864,0.572,1.379,0.572
				s1.019-0.207,1.381-0.572c0.363-0.363,0.572-0.867,0.572-1.38S51.743,27.063,51.38,26.699z"/>
		</g>
	</g>
	<g>
		<g>
			<path fill="#EF963F" d="M51.381,32.4c-0.363-0.362-0.865-0.571-1.381-0.571c-0.514,0-1.018,0.209-1.381,0.571
				c-0.362,0.363-0.571,0.867-0.571,1.381c0,0.513,0.208,1.018,0.571,1.38s0.867,0.571,1.381,0.571s1.018-0.209,1.381-0.571
				c0.362-0.363,0.571-0.867,0.571-1.38C51.952,33.268,51.743,32.764,51.381,32.4z"/>
		</g>
	</g>
	<g>
		<g>
			<path fill="#EF963F" d="M59.91,31.829H40.09c-1.078,0-1.951,0.875-1.951,1.953s0.873,1.953,1.951,1.953h19.82
				c1.078,0,1.951-0.875,1.951-1.953S60.988,31.829,59.91,31.829z"/>
		</g>
	</g>
</g>
</svg>
