<?xml version="1.0" encoding="utf-8"?>
<!-- Generator: Adobe Illustrator 16.0.0, SVG Export Plug-In . SVG Version: 6.00 Build 0)  -->
<!DOCTYPE svg PUBLIC "-//W3C//DTD SVG 1.1//EN" "http://www.w3.org/Graphics/SVG/1.1/DTD/svg11.dtd">
<svg version="1.1" id="Layer_1" xmlns="http://www.w3.org/2000/svg" xmlns:xlink="http://www.w3.org/1999/xlink" x="0px" y="0px"
	 width="100px" height="100px" viewBox="0 0 100 100" enable-background="new 0 0 100 100" xml:space="preserve">
<g>
	<g>
		<g>
			<g>
				<path fill="#FFFFFF" d="M97.09,86.318h-7.041c-0.145-3.572-0.75-7.09-1.811-10.48c-0.275-0.881-1.211-1.369-2.092-1.096
					c-0.879,0.273-1.367,1.211-1.094,2.09c0.959,3.07,1.514,6.254,1.656,9.488h-2.725V69.543C92.955,68.521,100,59.359,100,48.243
					c0-4.452-1.121-8.722-3.238-12.349c-0.301-0.512-0.848-0.827-1.439-0.827h-26.01c-0.594,0-1.143,0.315-1.439,0.827
					c-2.119,3.626-3.238,7.896-3.238,12.349c0,4.667,1.217,9.103,3.52,12.824c0.482,0.783,1.512,1.025,2.295,0.541
					s1.025-1.512,0.541-2.297c-1.975-3.193-3.02-7.02-3.02-11.068c0-0.32,0.01-0.64,0.021-0.958h28.648
					c0.014,0.318,0.021,0.638,0.021,0.958c0,9.958-6.436,18.06-14.346,18.06c-2.945,0-5.777-1.121-8.191-3.244
					c-0.691-0.607-1.746-0.541-2.354,0.152c-0.607,0.689-0.541,1.744,0.15,2.354c2.582,2.268,5.57,3.623,8.727,3.979V86.32H12.05
					c0.304-6.891,2.479-13.506,6.343-19.223c0.517-0.764,0.315-1.801-0.447-2.316c-0.765-0.516-1.802-0.314-2.316,0.447
					c-4.238,6.273-6.613,13.533-6.918,21.092H1.669c-0.921,0-1.668,0.746-1.668,1.668v3.057c0,4.938,4.018,8.955,8.956,8.955h19.07
					c0.921,0,1.668-0.746,1.668-1.67c0-0.92-0.747-1.668-1.668-1.668H8.958c-3.098,0-5.619-2.52-5.619-5.619v-1.387H80.65v2.002
					h-1.67c-3.104,0-5.719,2.129-6.461,5.004H34.367c-0.921,0-1.668,0.746-1.668,1.668s0.747,1.67,1.668,1.67h39.61h15.826h0.855
					c0.227,0,0.441-0.047,0.639-0.129c4.229-0.713,7.461-4.398,7.461-8.826v-3.057C98.758,87.066,98.01,86.318,97.09,86.318z
					 M68.383,43.947c0.381-1.96,1.023-3.829,1.914-5.544h24.039c0.893,1.715,1.535,3.584,1.916,5.544H68.383z M76.092,96.662
					c0.578-0.996,1.656-1.668,2.889-1.668h6.674c1.23,0,2.311,0.672,2.889,1.668H76.092z M95.422,91.043
					c0,2.324-1.422,4.324-3.438,5.178c-0.887-2.648-3.389-4.564-6.33-4.564h-1.668v-2h11.436V91.043L95.422,91.043z"/>
			</g>
		</g>
		<g>
			<g>
				<path fill="#FFFFFF" d="M60.543,48.833c-1.719-0.488-3.469-0.858-5.24-1.117c0.99-1.272,1.584-2.869,1.584-4.604
					c0-4.139-3.369-7.507-7.507-7.507c-4.139,0-7.507,3.368-7.507,7.507c0,1.731,0.591,3.326,1.579,4.599
					c-8.623,1.251-16.581,5.222-22.854,11.494c-0.65,0.652-0.65,1.707,0,2.359c0.326,0.326,0.753,0.488,1.181,0.488
					c0.427,0,0.854-0.162,1.179-0.488c7.058-7.057,16.442-10.945,26.423-10.945c3.484,0,6.931,0.48,10.25,1.424
					c0.887,0.252,1.809-0.262,2.063-1.148C61.943,50.009,61.43,49.086,60.543,48.833z M49.378,47.283c-2.3,0-4.17-1.871-4.17-4.17
					s1.871-4.17,4.17-4.17c2.299,0,4.17,1.871,4.17,4.17C53.549,45.413,51.678,47.283,49.378,47.283z"/>
			</g>
		</g>
	</g>
	<path fill="#FFFFFF" d="M70.24,4.176c-5.006-2.917-10.693-1.368-14.582,0.445l-11.592,5.406L24.127,0L12.253,0.51L28.717,17.2
		l-10.493,4.984L7.307,18.03L0,21.438l6.605,8.202c-0.698,0.833-1.331,2.005-0.757,3.236c0.75,1.607,2.967,2.418,6.603,2.418
		c0.746,0,1.551-0.034,2.415-0.103c3.991-0.314,8.316-1.334,11.021-2.595l41.44-19.324c3.578-1.669,5.361-3.421,5.449-5.358
		C72.824,6.911,72.42,5.446,70.24,4.176z M66.061,10.559L24.623,29.882c-2.305,1.074-6.089,1.976-9.64,2.294
		c-3.631,0.326-5.57-0.083-6.218-0.432c0.134-0.182,0.382-0.469,0.841-0.873l1.076-0.946l-5.949-7.388l2.694-1.257l10.929,4.16
		l15.456-7.343L19.13,3.214l4.348-0.188l20.539,10.33l12.909-6.019c4.715-2.198,8.688-2.392,11.807-0.573l0,0
		c0.785,0.458,1.061,0.856,1.055,1.014C69.783,7.79,69.693,8.864,66.061,10.559z"/>
</g>
</svg>
