<?xml version="1.0" encoding="utf-8"?>
<!-- Generator: Adobe Illustrator 16.0.0, SVG Export Plug-In . SVG Version: 6.00 Build 0)  -->
<!DOCTYPE svg PUBLIC "-//W3C//DTD SVG 1.1//EN" "http://www.w3.org/Graphics/SVG/1.1/DTD/svg11.dtd">
<svg version="1.1" id="Capa_1" xmlns="http://www.w3.org/2000/svg" xmlns:xlink="http://www.w3.org/1999/xlink" x="0px" y="0px"
	 width="100px" height="100px" viewBox="0 0 100 100" enable-background="new 0 0 100 100" xml:space="preserve">
<g>
	<g>
		<g>
			<path fill="#EF963F" d="M46.655,85.352H34.937c-0.809,0-1.465,0.656-1.465,1.465s0.656,1.465,1.465,1.465h11.719
				c0.809,0,1.465-0.656,1.465-1.465S47.464,85.352,46.655,85.352z"/>
		</g>
	</g>
	<g>
		<g>
			<path fill="#EF963F" d="M92.468,91.211h-24.06c-0.81,0-1.465,0.656-1.465,1.465s0.655,1.465,1.465,1.465h24.06
				c0.81,0,1.465-0.656,1.465-1.465S93.277,91.211,92.468,91.211z"/>
		</g>
	</g>
	<g>
		<g>
			<path fill="#EF963F" d="M80.127,73.594h-5.859c-0.81,0-1.465,0.656-1.465,1.465c0,0.81,0.655,1.465,1.465,1.465h5.859
				c0.809,0,1.465-0.655,1.465-1.465C81.592,74.25,80.936,73.594,80.127,73.594z"/>
		</g>
	</g>
	<g>
		<g>
			<path fill="#EF963F" d="M70.922,79.453H40.796c-0.81,0-1.465,0.656-1.465,1.465c0,0.81,0.655,1.465,1.465,1.465h30.126
				c0.811,0,1.465-0.655,1.465-1.465C72.387,80.109,71.732,79.453,70.922,79.453z"/>
		</g>
	</g>
	<g>
		<g>
			<path fill="#EF963F" d="M34.937,79.453h-5.859c-0.809,0-1.465,0.656-1.465,1.465c0,0.81,0.656,1.465,1.465,1.465h5.859
				c0.809,0,1.465-0.655,1.465-1.465C36.401,80.109,35.746,79.453,34.937,79.453z"/>
		</g>
	</g>
	<g>
		<g>
			<path fill="#EF963F" d="M38.281,20.86c-5.654,0-10.254,4.6-10.254,10.254c0,5.654,4.6,10.254,10.254,10.254
				s10.254-4.6,10.254-10.254C48.535,25.46,43.935,20.86,38.281,20.86z M38.281,38.438c-4.039,0-7.324-3.286-7.324-7.324
				s3.286-7.324,7.324-7.324s7.324,3.286,7.324,7.324S42.32,38.438,38.281,38.438z"/>
		</g>
	</g>
	<g>
		<g>
			<path fill="#EF963F" d="M61.719,20.86c-5.654,0-10.254,4.6-10.254,10.254c0,5.654,4.6,10.254,10.254,10.254
				s10.254-4.6,10.254-10.254C71.973,25.46,67.373,20.86,61.719,20.86z M61.719,23.79c3.508,0,6.445,2.479,7.158,5.777
				c-3.937-0.391-7.535-2.189-10.215-5.106C59.594,24.031,60.628,23.79,61.719,23.79z M61.719,38.438
				c-4.039,0-7.324-3.286-7.324-7.324c0-1.887,0.718-3.61,1.895-4.91c3.26,3.672,7.729,5.907,12.618,6.308
				C68.252,35.884,65.279,38.438,61.719,38.438z"/>
		</g>
	</g>
	<g>
		<g>
			<path fill="#EF963F" d="M98.535,64.805c-2.012,0-3.838-1.109-4.768-2.897c-0.252-0.485-0.753-0.789-1.3-0.789
				c-0.546,0-1.048,0.304-1.3,0.789c-0.93,1.788-2.756,2.897-4.767,2.897s-3.837-1.109-4.768-2.897
				c-0.252-0.485-0.753-0.789-1.3-0.789c-0.546,0-1.047,0.304-1.299,0.789c-0.93,1.788-2.756,2.897-4.768,2.897h-2.295V51.133
				h10.254c2.423,0,4.395-1.971,4.395-4.394s-1.972-4.395-4.395-4.395h-1.465v-6.111c1.705-0.604,2.93-2.233,2.93-4.143v-9.766
				c0-0.809-0.656-1.465-1.465-1.465h-5.859c-0.81,0-1.465,0.656-1.465,1.465v9.766c0,1.91,1.225,3.538,2.93,4.143v6.111h-1.465
				c-0.81,0-1.465,0.656-1.465,1.465s0.655,1.465,1.465,1.465h5.859c0.808,0,1.465,0.657,1.465,1.465
				c0,0.808-0.657,1.465-1.465,1.465H71.768c-0.639-2.251-2.713-3.906-5.166-3.906h-9.766c-2.962,0-5.371,2.41-5.371,5.372v15.136
				h-2.93V49.669c0-2.962-2.41-5.372-5.371-5.372h-9.766c-2.435,0-4.495,1.629-5.151,3.854c-8.305-0.638-14.868-7.595-14.868-16.061
				c0-0.809-0.656-1.465-1.465-1.465s-1.465,0.656-1.465,1.465c0,10.008,7.759,18.237,17.578,18.988v13.727h-2.295
				c-2.011,0-3.837-1.109-4.768-2.897c-0.252-0.485-0.753-0.789-1.299-0.789s-1.047,0.304-1.3,0.789
				c-0.93,1.788-2.756,2.897-4.767,2.897c-2.011,0-3.837-1.109-4.767-2.897c-0.252-0.485-0.753-0.789-1.299-0.789
				c-0.547,0-1.048,0.304-1.3,0.789c-0.93,1.788-2.756,2.897-4.767,2.897C0.656,64.805,0,65.461,0,66.27v32.266
				C0,99.344,0.656,100,1.465,100h97.07c0.809,0,1.465-0.656,1.465-1.465V66.27C100,65.461,99.344,64.805,98.535,64.805z
				 M79.297,33.555c-0.809,0-1.465-0.657-1.465-1.465V23.79h2.93v8.301C80.762,32.898,80.104,33.555,79.297,33.555z M66.113,47.227
				h0.488c1.346,0,2.441,1.095,2.441,2.442v3.417h-2.93V47.227z M60.254,47.227h2.93v5.859h-2.93V47.227z M54.395,49.669
				c0-1.347,1.095-2.442,2.441-2.442h0.488v5.859h-2.93V49.669z M97.07,97.07H2.93v-8.789h26.147c0.809,0,1.465-0.656,1.465-1.465
				s-0.656-1.465-1.465-1.465H2.93v-2.969h11.084c0.809,0,1.465-0.655,1.465-1.465c0-0.809-0.656-1.465-1.465-1.465H2.93V67.605
				c1.773-0.314,3.384-1.196,4.602-2.504c1.546,1.66,3.726,2.633,6.067,2.633c2.341,0,4.52-0.973,6.066-2.633
				c1.547,1.66,3.726,2.633,6.067,2.633h3.76c0.809,0,1.465-0.655,1.465-1.465V49.669c0-1.347,1.095-2.442,2.441-2.442h9.766
				c1.346,0,2.441,1.095,2.441,2.442V66.27c0,0.81,0.655,1.465,1.465,1.465h5.859c0.809,0,1.465-0.655,1.465-1.465V56.016h14.648
				V66.27c0,0.81,0.655,1.465,1.465,1.465h3.76c2.341,0,4.52-0.973,6.066-2.633c1.547,1.66,3.726,2.633,6.066,2.633
				c2.342,0,4.521-0.973,6.067-2.633c1.218,1.308,2.829,2.189,4.602,2.504v5.988H85.985c-0.81,0-1.464,0.656-1.464,1.465
				c0,0.81,0.654,1.465,1.464,1.465H97.07V97.07z"/>
		</g>
	</g>
	<g>
		<g>
			<path fill="#EF963F" d="M41.211,64.805h-5.859c-0.81,0-1.465,0.656-1.465,1.465c0,0.81,0.655,1.465,1.465,1.465h5.859
				c0.809,0,1.465-0.655,1.465-1.465C42.676,65.461,42.02,64.805,41.211,64.805z"/>
		</g>
	</g>
	<g>
		<g>
			<path fill="#EF963F" d="M64.648,64.805h-5.859c-0.81,0-1.465,0.656-1.465,1.465c0,0.81,0.655,1.465,1.465,1.465h5.859
				c0.809,0,1.465-0.655,1.465-1.465C66.113,65.461,65.457,64.805,64.648,64.805z"/>
		</g>
	</g>
	<g>
		<g>
			<path fill="#EF963F" d="M98.535,0H1.465C0.656,0,0,0.656,0,1.465C0,2.274,0.656,2.93,1.465,2.93h6.614l5.455,10.909
				c0.248,0.496,0.755,0.81,1.31,0.81c0.555,0,1.062-0.313,1.31-0.81L21.608,2.93h4.049l5.455,10.909
				c0.248,0.496,0.755,0.81,1.31,0.81c0.555,0,1.062-0.313,1.31-0.81L39.187,2.93h4.049l5.455,10.909
				c0.248,0.496,0.755,0.81,1.31,0.81s1.063-0.313,1.311-0.81L56.765,2.93h4.049l5.454,10.909c0.248,0.496,0.756,0.81,1.311,0.81
				s1.063-0.313,1.311-0.81L74.342,2.93h4.049l5.455,10.909c0.248,0.496,0.756,0.81,1.311,0.81s1.063-0.313,1.311-0.81L91.92,2.93
				h6.615c0.809,0,1.465-0.656,1.465-1.465C100,0.656,99.344,0,98.535,0z M14.844,9.908L11.354,2.93h6.979L14.844,9.908z
				 M32.422,9.908L28.933,2.93h6.979L32.422,9.908z M50,9.908L46.511,2.93h6.979L50,9.908z M67.578,9.908L64.089,2.93h6.978
				L67.578,9.908z M85.156,9.908l-3.49-6.979h6.979L85.156,9.908z"/>
		</g>
	</g>
</g>
</svg>
